<?xml version="1.0" encoding="UTF-8"?>
<svg width="50px" height="50px" viewBox="0 0 50 50" version="1.1" xmlns="http://www.w3.org/2000/svg" xmlns:xlink="http://www.w3.org/1999/xlink">
    <!-- Generator: Sketch 49.1 (51147) - http://www.bohemiancoding.com/sketch -->
    <title>blog</title>
    <desc>Created with Sketch.</desc>
    <defs></defs>
    <g id="blog" stroke="none" stroke-width="1" fill="none" fill-rule="evenodd">
        <g id="WordPress_logo" fill="#25B7C4" fill-rule="nonzero">
            <g id="Group">
                <path d="M3.5398374,24.902439 C3.5398374,33.3585366 8.45406504,40.6662602 15.5800813,44.1292683 L5.38943089,16.2081301 C4.20406504,18.8650407 3.5398374,21.8052846 3.5398374,24.902439 Z" id="Shape"></path>
                <path d="M39.3252033,23.8243902 C39.3252033,21.1841463 38.3768293,19.3556911 37.5634146,17.9325203 C36.4804878,16.1727642 35.4654472,14.6825203 35.4654472,12.9227642 C35.4654472,10.9589431 36.954878,9.13089431 39.0528455,9.13089431 C39.147561,9.13089431 39.2373984,9.14268293 39.3296748,9.14796748 C35.5288618,5.66585366 30.4650407,3.5398374 24.903252,3.5398374 C17.4398374,3.5398374 10.8735772,7.36910569 7.05365854,13.1691057 C7.55487805,13.1841463 8.02723577,13.1947154 8.42845528,13.1947154 C10.6630081,13.1947154 14.1219512,12.9235772 14.1219512,12.9235772 C15.2735772,12.8556911 15.4093496,14.5471545 14.2589431,14.6833333 C14.2589431,14.6833333 13.101626,14.8195122 11.8138211,14.8869919 L19.5934959,38.0272358 L24.2686992,24.0056911 L20.9402439,14.8861789 C19.7898374,14.8186992 18.7,14.6825203 18.7,14.6825203 C17.5487805,14.6150407 17.6837398,12.854878 18.8349593,12.9227642 C18.8349593,12.9227642 22.3630081,13.1939024 24.4621951,13.1939024 C26.6963415,13.1939024 30.1556911,12.9227642 30.1556911,12.9227642 C31.3081301,12.854878 31.4434959,14.5463415 30.2926829,14.6825203 C30.2926829,14.6825203 29.1329268,14.8186992 27.847561,14.8861789 L35.5678862,37.8512195 L37.6987805,30.7304878 C38.6223577,27.7756098 39.3252033,25.653252 39.3252033,23.8243902 Z" id="Shape"></path>
                <path d="M25.2780488,26.7711382 L18.8682927,45.396748 C20.7821138,45.9593496 22.8060976,46.2670732 24.903252,46.2670732 C27.3910569,46.2670732 29.7768293,45.8369919 31.997561,45.0560976 C31.9402439,44.9646341 31.8882114,44.8674797 31.8455285,44.7617886 L25.2780488,26.7711382 Z" id="Shape"></path>
                <path d="M43.6487805,14.6528455 C43.7406504,15.3333333 43.7926829,16.0638211 43.7926829,16.8495935 C43.7926829,19.0174797 43.3878049,21.4544715 42.1682927,24.501626 L35.6426829,43.3686992 C41.9939024,39.6650407 46.2658537,32.7841463 46.2658537,24.9028455 C46.2662602,21.1886179 45.3174797,17.695935 43.6487805,14.6528455 Z" id="Shape"></path>
                <path d="M24.903252,0 C11.1719512,0 0,11.1711382 0,24.902439 C0,38.6353659 11.1719512,49.8060976 24.903252,49.8060976 C38.6341463,49.8060976 49.8077236,38.6353659 49.8077236,24.902439 C49.8073171,11.1711382 38.6341463,0 24.903252,0 Z M24.903252,48.6646341 C11.801626,48.6646341 1.14186992,38.004878 1.14186992,24.902439 C1.14186992,11.800813 11.8012195,1.14186992 24.903252,1.14186992 C38.0044715,1.14186992 48.6634146,11.800813 48.6634146,24.902439 C48.6634146,38.004878 38.0044715,48.6646341 24.903252,48.6646341 Z" id="Shape"></path>
            </g>
        </g>
    </g>
</svg>