<?xml version="1.0" encoding="UTF-8"?>
<svg width="50px" height="50px" viewBox="0 0 50 50" version="1.1" xmlns="http://www.w3.org/2000/svg" xmlns:xlink="http://www.w3.org/1999/xlink">
    <!-- Generator: Sketch 49.3 (51167) - http://www.bohemiancoding.com/sketch -->
    <title>code</title>
    <desc>Created with Sketch.</desc>
    <defs></defs>
    <g id="code" stroke="none" stroke-width="1" fill="none" fill-rule="evenodd">
        <g id="code-fork-symbol" transform="translate(8.000000, 0.000000)" fill="#25B7C4" fill-rule="nonzero">
            <path d="M31.4873576,5.9833713 C30.2728929,4.76958998 28.798861,4.16252847 27.0643508,4.16252847 C25.3306378,4.16252847 23.856492,4.76924829 22.642369,5.9833713 C21.4287016,7.19715262 20.8218679,8.67107062 20.8218679,10.4056948 C20.8218679,11.5329157 21.1028474,12.5789294 21.6665148,13.543508 C22.2300683,14.5082005 22.9881549,15.2617312 23.9427107,15.8034169 C23.9427107,16.9306378 23.8510251,17.922779 23.6670843,18.7789294 C23.4823462,19.6350797 23.1791572,20.388041 22.7566059,21.0388383 C22.3329157,21.6892938 21.8948747,22.2416856 21.4392938,22.6971526 C20.9835991,23.1526196 20.3440774,23.58041 19.5203872,23.9816629 C18.6968109,24.3826879 17.9321185,24.7183371 17.2277904,24.9897494 C16.5234624,25.2602506 15.5747153,25.5799544 14.3824601,25.9486333 C12.2143508,26.6209567 10.5454442,27.2382688 9.37471526,27.8022779 L9.37471526,11.6407745 C10.3285877,11.0992027 11.0873576,10.3457859 11.6509112,9.38109339 C12.2143508,8.41640091 12.4961276,7.37027335 12.4961276,6.24305239 C12.4961276,4.50899772 11.8894077,3.03473804 10.6752847,1.82095672 C9.46161731,0.607289294 7.98769932,0 6.25318907,0 C4.51856492,0 3.04464692,0.606833713 1.83052392,1.82095672 C0.616856492,3.03473804 0.00968109339,4.50899772 0.00968109339,6.24305239 C0.00968109339,7.37027335 0.291457859,8.41640091 0.854897494,9.38109339 C1.41845103,10.3457859 2.17710706,11.0992027 3.13109339,11.6407745 L3.13109339,38.3055809 C2.17710706,38.8469248 1.41845103,39.601139 0.854897494,40.5654897 C0.291457859,41.5305239 0.00968109339,42.5766515 0.00968109339,43.7035308 C0.00968109339,45.4375854 0.616400911,46.9117312 1.83052392,48.1253986 C3.04464692,49.3390661 4.51890661,49.9463554 6.25318907,49.9463554 C7.98735763,49.9463554 9.46161731,49.3390661 10.6752847,48.1253986 C11.8890661,46.9117312 12.4961276,45.4374715 12.4961276,43.7035308 C12.4961276,42.5766515 12.2143508,41.5305239 11.6509112,40.5654897 C11.0872437,39.601139 10.3285877,38.8469248 9.37471526,38.3055809 L9.37471526,37.4601367 C9.37471526,35.9645786 9.82448747,34.8809795 10.7240319,34.2091116 C11.6235763,33.5363326 13.46082,32.7669704 16.2359909,31.9001139 C19.1629841,30.9677677 21.3636674,30.0892938 22.8376993,29.265262 C27.6933941,26.5127563 30.1431663,22.0251708 30.1863326,15.803303 C31.1408884,15.2617312 31.8989749,14.5080866 32.4625285,13.5433941 C33.0257403,12.5787016 33.3079727,11.5328018 33.3079727,10.4055809 C33.3083144,8.6714123 32.701139,7.19749431 31.4873576,5.9833713 Z M8.46480638,45.9154897 C7.85751708,46.5226651 7.12050114,46.8259681 6.25364465,46.8259681 C5.38621868,46.8259681 4.64920273,46.5226651 4.04214123,45.9154897 C3.43542141,45.3089977 3.13166287,44.5715262 3.13166287,43.7046697 C3.13166287,42.8371298 3.43507973,42.1004556 4.04214123,41.4931663 C4.64920273,40.8863326 5.38621868,40.5826879 6.25364465,40.5826879 C7.12050114,40.5826879 7.85763098,40.8866743 8.46480638,41.4931663 C9.07186788,42.1004556 9.37517084,42.8371298 9.37517084,43.7046697 C9.37505695,44.5715262 9.07186788,45.3088838 8.46480638,45.9154897 Z M8.46480638,8.4546697 C7.85751708,9.06173121 7.12050114,9.36514806 6.25364465,9.36514806 C5.38621868,9.36514806 4.64920273,9.06173121 4.04214123,8.4546697 C3.43542141,7.8476082 3.13166287,7.11093394 3.13166287,6.24350797 C3.13166287,5.37630979 3.43507973,4.63906606 4.04214123,4.03257403 C4.64920273,3.42562642 5.38621868,3.12209567 6.25364465,3.12209567 C7.12050114,3.12209567 7.85763098,3.42574032 8.46480638,4.03257403 C9.07186788,4.63906606 9.37517084,5.37630979 9.37517084,6.24350797 C9.37505695,7.11093394 9.07186788,7.84794989 8.46480638,8.4546697 Z M29.2758542,12.6171982 C28.6690205,13.223918 27.9323462,13.5275626 27.0651481,13.5275626 C26.1974943,13.5275626 25.4603645,13.223918 24.8539863,12.6171982 C24.2471526,12.0104784 23.943508,11.2733485 23.943508,10.4060364 C23.943508,9.53883827 24.2471526,8.80205011 24.8539863,8.19487472 C25.46082,7.58769932 26.1974943,7.28451025 27.0651481,7.28451025 C27.9323462,7.28451025 28.6690205,7.58781321 29.2758542,8.19487472 C29.8826879,8.80148064 30.1863326,9.53872437 30.1863326,10.4060364 C30.1863326,11.2732346 29.8831435,12.0104784 29.2758542,12.6171982 Z" id="Shape"></path>
        </g>
    </g>
</svg>