<?xml version="1.0" encoding="UTF-8"?>
<svg width="50px" height="50px" viewBox="0 0 50 50" version="1.1" xmlns="http://www.w3.org/2000/svg" xmlns:xlink="http://www.w3.org/1999/xlink">
    <!-- Generator: Sketch 49.3 (51167) - http://www.bohemiancoding.com/sketch -->
    <title>crunchbase</title>
    <desc>Created with Sketch.</desc>
    <defs></defs>
    <g id="crunchbase" stroke="none" stroke-width="1" fill="none" fill-rule="evenodd">
        <g id="cb2" transform="translate(0.000000, 11.000000)" fill="#25B7C4" fill-rule="nonzero">
            <path d="M19.1456897,6.46293103 C18.6508621,5.67844828 18.0474138,5.02068966 17.3353448,4.48965517 C16.6232759,3.95862069 15.8387931,3.55431034 14.9818966,3.27672414 C14.125,3 13.2258621,2.86034483 12.2844828,2.86034483 C10.5706897,2.86034483 9.09827586,3.1862069 7.86724138,3.83793103 C6.6362069,4.48965517 5.62758621,5.35258621 4.84396552,6.42672414 C4.05948276,7.50086207 3.48017241,8.7137931 3.10517241,10.0655172 C2.73103448,11.4181034 2.54482759,12.8051724 2.54482759,14.2293103 C2.54482759,15.6301724 2.73189655,17.012069 3.10517241,18.375 C3.48017241,19.7396552 4.05862069,20.9586207 4.84396552,22.0318966 C5.62758621,23.1060345 6.6362069,23.9689655 7.86724138,24.6206897 C9.09827586,25.2724138 10.5706897,25.5982759 12.2844828,25.5982759 C13.4905172,25.5982759 14.5775862,25.3810345 15.5431034,24.9465517 C16.5077586,24.512069 17.3405172,23.9206897 18.0405172,23.1724138 C18.7405172,22.4241379 19.3086207,21.5491379 19.7431034,20.5474138 C20.1775862,19.5456897 20.4543103,18.4655172 20.5758621,17.3068966 L23.037069,17.3068966 C22.8681034,18.9 22.4939655,20.3362069 21.9146552,21.6155172 C21.3353448,22.8948276 20.587069,23.9810345 19.6698276,24.8741379 C18.7525862,25.7672414 17.6724138,26.4551724 16.4284483,26.937931 C15.1853448,27.4206897 13.8034483,27.662069 12.2827586,27.662069 C10.2551724,27.662069 8.475,27.2939655 6.94224138,26.5577586 C5.40948276,25.8215517 4.1362069,24.837931 3.12241379,23.6068966 C2.10862069,22.3758621 1.34827586,20.9517241 0.84137931,19.3344828 C0.334482759,17.7172414 0.0810344828,16.0155172 0.0810344828,14.2293103 C0.0810344828,12.4431034 0.334482759,10.7422414 0.84137931,9.12413793 C1.34913793,7.50775862 2.10948276,6.07672414 3.12241379,4.83362069 C4.1362069,3.59051724 5.40862069,2.60172414 6.94224138,1.86465517 C8.475,1.12844828 10.2560345,0.760344828 12.2827586,0.760344828 C13.5137931,0.760344828 14.7137931,0.94137931 15.8853448,1.30344828 C17.0560345,1.66551724 18.1181034,2.20258621 19.0715517,2.91465517 C20.0241379,3.62672414 20.8206897,4.50258621 21.4612069,5.53965517 C22.1,6.57844828 22.5043103,7.77241379 22.6732759,9.12413793 L20.212069,9.12413793 C19.9965517,8.13448276 19.6396552,7.24741379 19.1456897,6.46293103 Z" id="Shape"></path>
            <path d="M28.0698276,1.30344828 L40.6327586,1.30344828 C42.95,1.30344828 44.8086207,1.83448276 46.2094828,2.89655172 C47.6086207,3.95862069 48.3094828,5.5637931 48.3094828,7.71206897 C48.3094828,9.01551724 47.9896552,10.1327586 47.35,11.0612069 C46.7103448,11.9905172 45.7991379,12.7086207 44.6163793,13.2155172 L44.6163793,13.287931 C46.2103448,13.6267241 47.4163793,14.3801724 48.237069,15.5508621 C49.0568966,16.7215517 49.4681034,18.1887931 49.4681034,19.95 C49.4681034,20.9637931 49.287069,21.9112069 48.925,22.7922414 C48.562931,23.6732759 47.9956897,24.4336207 47.2232759,25.0732759 C46.4508621,25.712931 45.4612069,26.2198276 44.2543103,26.5939655 C43.0474138,26.9681034 41.612069,27.1551724 39.9456897,27.1551724 L28.0706897,27.1551724 L28.0706897,1.30344828 L28.0698276,1.30344828 Z M32.5956897,12.1293103 L39.9810345,12.1293103 C41.0672414,12.1293103 41.9732759,11.8215517 42.6965517,11.2060345 C43.4198276,10.5905172 43.7827586,9.70344828 43.7827586,8.54482759 C43.7827586,7.24137931 43.4568966,6.32413793 42.8051724,5.79310345 C42.1534483,5.26206897 41.212069,4.99655172 39.9810345,4.99655172 L32.5956897,4.99655172 L32.5956897,12.1293103 Z M32.5956897,23.462069 L40.5965517,23.462069 C41.9732759,23.462069 43.0405172,23.1060345 43.8017241,22.3939655 C44.562069,21.6818966 44.9413793,20.6741379 44.9413793,19.3706897 C44.9413793,18.0913793 44.562069,17.1077586 43.8017241,16.4198276 C43.0405172,15.7318966 41.9732759,15.387931 40.5965517,15.387931 L32.5956897,15.387931 L32.5956897,23.462069 Z" id="Shape"></path>
        </g>
    </g>
</svg>