<?xml version="1.0" encoding="UTF-8"?>
<svg width="50px" height="50px" viewBox="0 0 50 50" version="1.1" xmlns="http://www.w3.org/2000/svg" xmlns:xlink="http://www.w3.org/1999/xlink">
    <!-- Generator: Sketch 49.2 (51160) - http://www.bohemiancoding.com/sketch -->
    <title>email</title>
    <desc>Created with Sketch.</desc>
    <defs></defs>
    <g id="email" stroke="none" stroke-width="1" fill="none" fill-rule="evenodd">
        <g id="envelope" transform="translate(0.000000, 5.000000)" fill="#25B7C4" fill-rule="nonzero">
            <path d="M4.79550781,12.1805664 C5.42753906,12.6265625 7.33271484,13.9511719 10.5111328,16.1537109 C13.6896484,18.35625 16.1246094,20.0521484 17.8161133,21.2415039 C18.0019531,21.371875 18.3967773,21.6552734 19.0007813,22.0920898 C19.6048828,22.5291992 20.1068359,22.8824219 20.50625,23.1518555 C20.905957,23.4211914 21.3891602,23.7233398 21.9563477,24.0578125 C22.5233398,24.3919922 23.0578125,24.6433594 23.559668,24.8097656 C24.0616211,24.9775391 24.5262695,25.0606445 24.9537109,25.0606445 L24.9817383,25.0606445 L25.0098633,25.0606445 C25.4373047,25.0606445 25.9021484,24.9774414 26.4041016,24.8097656 C26.9057617,24.6433594 27.4407227,24.3916992 28.0072266,24.0578125 C28.5740234,23.7229492 29.0572266,23.4210938 29.4569336,23.1518555 C29.8566406,22.8824219 30.3582031,22.5291992 30.9625,22.0920898 C31.5664063,21.6548828 31.9617187,21.371875 32.1475586,21.2415039 C33.8573242,20.0521484 38.2072266,17.031543 45.1958984,12.1799805 C46.5527344,11.2324219 47.6863281,10.0890625 48.5969727,8.75068359 C49.5083008,7.41289063 49.9634766,6.00947266 49.9634766,4.54121094 C49.9634766,3.31425781 49.5217773,2.26396484 48.6387695,1.39042969 C47.7558594,0.516699219 46.7101562,0.080078125 45.5023437,0.080078125 L4.46083984,0.080078125 C3.0296875,0.080078125 1.92832031,0.56328125 1.15693359,1.5296875 C0.385644531,2.49628906 0,3.70449219 0,5.15419922 C0,6.32519531 0.511328125,7.59414063 1.53349609,8.96025391 C2.55556641,10.3264648 3.64326172,11.4 4.79550781,12.1805664 Z" id="Shape"></path>
            <path d="M47.175,15.1635742 C41.0789063,19.2896484 36.45,22.4962891 33.2905273,24.7828125 C32.2310547,25.5631836 31.371582,26.1723633 30.7115234,26.6088867 C30.0514648,27.0457031 29.1736328,27.4917969 28.0767578,27.9469727 C26.9802734,28.402832 25.9583984,28.6300781 25.0102539,28.6300781 L24.9818359,28.6300781 L24.9538086,28.6300781 C24.0058594,28.6300781 22.9833984,28.402832 21.8869141,27.9469727 C20.7904297,27.4917969 19.9120117,27.0457031 19.2521484,26.6088867 C18.5924805,26.1723633 17.7327148,25.5631836 16.6733398,24.7828125 C14.1638672,22.9427734 9.54492187,19.7359375 2.81630859,15.1635742 C1.75654297,14.4577148 0.817871094,13.6486328 0,12.7379883 L0,34.8751953 C0,36.1027344 0.436621094,37.1524414 1.31035156,38.0260742 C2.18388672,38.9 3.23427734,39.3368164 4.46113281,39.3368164 L45.5027344,39.3368164 C46.7292969,39.3368164 47.7795898,38.9 48.6532227,38.0260742 C49.5271484,37.1521484 49.9635742,36.102832 49.9635742,34.8751953 L49.9635742,12.7379883 C49.1641602,13.6297852 48.2350586,14.4388672 47.175,15.1635742 Z" id="Shape"></path>
        </g>
    </g>
</svg>