<?xml version="1.0" encoding="UTF-8"?>
<svg width="50px" height="50px" viewBox="0 0 50 50" version="1.1" xmlns="http://www.w3.org/2000/svg" xmlns:xlink="http://www.w3.org/1999/xlink">
    <!-- Generator: Sketch 49.1 (51147) - http://www.bohemiancoding.com/sketch -->
    <title>facebook</title>
    <desc>Created with Sketch.</desc>
    <defs></defs>
    <g id="facebook" stroke="none" stroke-width="1" fill="none" fill-rule="evenodd">
        <g id="Group-16" fill="#25B7C4">
            <path d="M34.4598134,49.8968843 L34.4598134,30.6142351 L40.9323881,30.6142351 L41.9014179,23.0993097 L34.4598134,23.0993097 L34.4598134,18.3013619 C34.4598134,16.1256157 35.0639179,14.6429664 38.1840672,14.6429664 L42.1635448,14.6411007 L42.1635448,7.91983209 C41.4751119,7.82841418 39.1129851,7.62375 36.3648507,7.62375 C30.6273507,7.62375 26.6995522,11.1258022 26.6995522,17.5573321 L26.6995522,23.0993097 L20.2105597,23.0993097 L20.2105597,30.6142351 L26.6995522,30.6142351 L26.6995522,49.8968843 L2.85136194,49.8968843 C1.33326493,49.8968843 0.103227612,48.6662873 0.103227612,47.14875 L0.103227612,2.85136194 C0.103227612,1.33326493 1.33326493,0.103041045 2.85136194,0.103041045 L47.1485634,0.103041045 C48.6661007,0.103041045 49.8966978,1.33326493 49.8966978,2.85136194 L49.8966978,47.14875 C49.8966978,48.6662873 48.6661007,49.8968843 47.1485634,49.8968843 L34.4598134,49.8968843 Z" id="Combined-Shape"></path>
        </g>
    </g>
</svg>