<?xml version="1.0" encoding="UTF-8"?>
<svg width="50px" height="50px" viewBox="0 0 50 50" version="1.1" xmlns="http://www.w3.org/2000/svg" xmlns:xlink="http://www.w3.org/1999/xlink">
    <!-- Generator: Sketch 49.2 (51160) - http://www.bohemiancoding.com/sketch -->
    <title>fitbit</title>
    <desc>Created with Sketch.</desc>
    <defs></defs>
    <g id="fitbit" stroke="none" stroke-width="1" fill="none" fill-rule="evenodd">
        <path d="M27.7027027,3.71621622 C27.7027027,5.74324324 26.0135135,7.43243243 23.9864865,7.43243243 C21.9594595,7.43243243 20.2702703,5.74324324 20.2702703,3.71621622 C20.2702703,1.68918919 21.9594595,0 23.9864865,0 C26.0135135,0 27.7027027,1.68918919 27.7027027,3.71621622 Z M23.9864865,10.472973 C21.7905405,10.472973 20.1013514,12.1621622 20.1013514,14.3581081 C20.1013514,16.5540541 21.7905405,18.2432432 23.9864865,18.2432432 C26.1824324,18.2432432 27.8716216,16.5540541 27.8716216,14.3581081 C27.8716216,12.1621622 26.1824324,10.472973 23.9864865,10.472973 Z M23.9864865,20.9459459 C21.7905405,20.9459459 19.9324324,22.8040541 19.9324324,25 C19.9324324,27.1959459 21.7905405,29.0540541 23.9864865,29.0540541 C26.1824324,29.0540541 28.0405405,27.1959459 28.0405405,25 C28.0405405,22.8040541 26.1824324,20.9459459 23.9864865,20.9459459 Z M23.9864865,31.5878378 C21.7905405,31.5878378 20.1013514,33.277027 20.1013514,35.472973 C20.1013514,37.6689189 21.7905405,39.3581081 23.9864865,39.3581081 C26.1824324,39.3581081 27.8716216,37.6689189 27.8716216,35.472973 C27.8716216,33.4459459 26.1824324,31.5878378 23.9864865,31.5878378 Z M23.9864865,42.3986486 C21.9594595,42.3986486 20.2702703,44.0878378 20.2702703,46.1148649 C20.2702703,48.1418919 21.9594595,49.8310811 23.9864865,49.8310811 C26.0135135,49.8310811 27.7027027,48.1418919 27.7027027,46.1148649 C27.7027027,44.0878378 26.0135135,42.3986486 23.9864865,42.3986486 Z M34.2905405,9.96621622 C31.9256757,9.96621622 29.8986486,11.9932432 29.8986486,14.3581081 C29.8986486,16.722973 31.9256757,18.75 34.2905405,18.75 C36.6554054,18.75 38.6824324,16.722973 38.6824324,14.3581081 C38.6824324,11.9932432 36.6554054,9.96621622 34.2905405,9.96621622 Z M34.2905405,20.4391892 C31.7567568,20.4391892 29.7297297,22.4662162 29.7297297,25 C29.7297297,27.5337838 31.7567568,29.5608108 34.2905405,29.5608108 C36.8243243,29.5608108 38.8513514,27.5337838 38.8513514,25 C38.8513514,22.4662162 36.8243243,20.4391892 34.2905405,20.4391892 Z M34.2905405,31.0810811 C31.9256757,31.0810811 29.8986486,33.1081081 29.8986486,35.472973 C29.8986486,37.8378378 31.9256757,39.8648649 34.2905405,39.8648649 C36.6554054,39.8648649 38.6824324,37.8378378 38.6824324,35.472973 C38.6824324,33.1081081 36.6554054,31.0810811 34.2905405,31.0810811 Z M44.9324324,19.9324324 C42.2297297,19.9324324 39.8648649,22.1283784 39.8648649,25 C39.8648649,27.7027027 42.0608108,30.0675676 44.9324324,30.0675676 C47.8040541,30.0675676 50,27.8716216 50,25 C49.8310811,22.1283784 47.6351351,19.9324324 44.9324324,19.9324324 Z M13.5135135,10.9797297 C11.6554054,10.9797297 10.1351351,12.5 10.1351351,14.3581081 C10.1351351,16.2162162 11.6554054,17.7364865 13.5135135,17.7364865 C15.3716216,17.7364865 16.8918919,16.2162162 16.8918919,14.3581081 C16.8918919,12.5 15.3716216,10.9797297 13.5135135,10.9797297 Z M13.5135135,21.4527027 C11.4864865,21.4527027 9.96621622,22.972973 9.96621622,25 C9.96621622,27.027027 11.4864865,28.5472973 13.5135135,28.5472973 C15.5405405,28.5472973 17.0608108,27.027027 17.0608108,25 C17.0608108,22.972973 15.5405405,21.4527027 13.5135135,21.4527027 Z M13.5135135,32.0945946 C11.6554054,32.0945946 10.1351351,33.6148649 10.1351351,35.472973 C10.1351351,37.3310811 11.6554054,38.8513514 13.5135135,38.8513514 C15.3716216,38.8513514 16.8918919,37.3310811 16.8918919,35.472973 C16.8918919,33.6148649 15.3716216,32.0945946 13.5135135,32.0945946 Z M3.04054054,21.9594595 C1.35135135,21.9594595 0,23.3108108 0,25 C0,26.6891892 1.35135135,28.0405405 3.04054054,28.0405405 C4.72972973,28.0405405 6.08108108,26.6891892 6.08108108,25 C6.08108108,23.3108108 4.72972973,21.9594595 3.04054054,21.9594595 Z" id="path11" fill="#25B7C4" fill-rule="nonzero"></path>
    </g>
</svg>