<?xml version="1.0" encoding="UTF-8"?>
<svg width="50px" height="50px" viewBox="0 0 50 50" version="1.1" xmlns="http://www.w3.org/2000/svg" xmlns:xlink="http://www.w3.org/1999/xlink">
    <!-- Generator: Sketch 49.1 (51147) - http://www.bohemiancoding.com/sketch -->
    <title>github</title>
    <desc>Created with Sketch.</desc>
    <defs></defs>
    <g id="github" stroke="none" stroke-width="1" fill="none" fill-rule="evenodd">
        <path d="M24.9976979,1.23000002 C11.1943276,1.23000002 0,12.4227929 0,26.2307674 C0,37.2762261 7.1625894,46.6457586 17.0969029,49.9515691 C18.3477086,50.1817788 18.8035237,49.4098091 18.8035237,48.7468053 C18.8035237,48.1528644 18.7820375,46.5812999 18.7697597,44.4956006 C11.8158937,46.0057758 10.3486909,41.1437481 10.3486909,41.1437481 C9.21145523,38.2553845 7.57236256,37.4864843 7.57236256,37.4864843 C5.30249547,35.936406 7.74425243,35.9671006 7.74425243,35.9671006 C10.2535376,36.1435947 11.5734062,38.5439139 11.5734062,38.5439139 C13.8033703,42.3638593 17.4253353,41.2603877 18.8495657,40.6204049 C19.0767059,39.0058679 19.7228276,37.9039311 20.4364775,37.2792956 C14.8853556,36.6485212 9.04877375,34.5029673 9.04877375,24.9231766 C9.04877375,22.194425 10.0233279,19.9613914 11.6225176,18.2148676 C11.3646828,17.5825584 10.5067682,15.0395092 11.8680745,11.5986424 C11.8680745,11.5986424 13.9660518,10.9264302 18.7421345,14.1616431 C20.73575,13.6060705 22.875165,13.3298189 25.0007674,13.3190758 C27.124835,13.3298189 29.2627152,13.6060705 31.2594002,14.1616431 C36.0324135,10.9264302 38.1273213,11.5986424 38.1273213,11.5986424 C39.4916971,15.0395092 38.6337825,17.5825584 38.3774824,18.2148676 C39.9797416,19.9613914 40.9466221,22.194425 40.9466221,24.9231766 C40.9466221,34.527523 35.1008318,36.6408475 29.5328279,37.2593441 C30.4291108,38.0313137 31.2287056,39.5568363 31.2287056,41.8880927 C31.2287056,45.2307367 31.198011,47.927259 31.198011,48.7468053 C31.198011,49.415948 31.6492219,50.1940566 32.9169097,49.9500344 C42.8435495,46.6365503 50,37.2731567 50,26.2307674 C50,12.4227929 38.8056724,1.23000002 24.9976979,1.23000002" id="Fill-51" fill="#25B7C4"></path>
    </g>
</svg>