<?xml version="1.0" encoding="UTF-8"?>
<svg width="50px" height="50px" viewBox="0 0 50 50" version="1.1" xmlns="http://www.w3.org/2000/svg" xmlns:xlink="http://www.w3.org/1999/xlink">
    <!-- Generator: Sketch 49.1 (51147) - http://www.bohemiancoding.com/sketch -->
    <title>gyroscope</title>
    <desc>Created with Sketch.</desc>
    <defs></defs>
    <g id="gyroscope" stroke="none" stroke-width="1" fill="none" fill-rule="evenodd">
        <g id="science" transform="translate(3.000000, 0.000000)" fill="#25B7C4" fill-rule="nonzero">
            <path d="M22.3906398,0 C16.6588702,0 12.146626,10.9147528 12.146626,24.9392956 C12.146626,38.9638383 16.6588702,49.8785912 22.3906398,49.8785912 C28.1224095,49.8785912 32.6346537,38.9638383 32.6346537,24.9392956 C32.6346537,10.9757291 28.1224095,0 22.3906398,0 Z M22.3906398,47.8053979 C18.5491346,47.8053979 14.2807955,38.4150519 14.2807955,24.9392956 C14.2807955,11.4635393 18.5491346,2.07319328 22.3906398,2.07319328 C26.232145,2.07319328 30.5004841,11.4635393 30.5004841,24.9392956 C30.5004841,38.4150519 26.232145,47.8053979 22.3906398,47.8053979 Z" id="Shape"></path>
            <path d="M43.7933116,12.1342783 C43.00062,10.7928003 41.2323081,9.26839347 37.0859216,9.26839347 C31.7200096,9.26839347 24.2809043,11.8293969 17.0857041,16.097736 C11.5368633,19.451431 6.71973771,23.4148888 3.67092407,27.3173702 C0.439181605,31.4637568 -0.597415033,35.1833094 0.926991788,37.6833366 C1.71968333,39.0248146 3.48799525,40.5492214 7.6343818,40.5492214 C13.0002938,40.5492214 20.4393991,37.988218 27.6345993,33.7198789 C33.1834401,30.3661839 38.0005657,26.4027261 41.0493793,22.5002447 C44.2811218,18.3538581 45.3177184,14.6343055 43.7933116,12.1342783 Z M39.3420437,21.2197429 C36.4151826,24.9392956 31.8419621,28.7198245 26.4760501,31.951567 C19.5857313,36.0369772 12.5734599,38.4760282 7.57340553,38.4760282 C5.86606989,38.4760282 3.60994779,38.1101705 2.6953037,36.64674 C1.71968333,35.0003806 2.63432743,32.0735195 5.31728343,28.7198245 C8.24414453,25.0002719 12.817365,21.2197429 18.183277,17.9880005 C25.0735958,13.9025902 32.0858672,11.4635393 37.0859216,11.4635393 C38.8542335,11.4635393 41.1103556,11.7684207 41.9640234,13.2928275 C42.9396438,14.9391868 42.0249997,17.8660479 39.3420437,21.2197429 Z" id="Shape"></path>
            <path d="M41.1103556,26.9515126 C37.9395894,23.1709837 33.1224638,19.2685022 27.4516705,16.0367598 C20.3784228,12.0123257 13.0002938,9.63425111 7.69535807,9.63425111 C3.30506643,9.63425111 1.47577824,11.2806105 0.683086697,12.6220885 C-0.780343852,15.1830919 0.317229059,18.8416683 3.67092407,22.9270786 C6.84169025,26.7076075 11.6588158,30.610089 17.3296092,33.8418314 C24.4028568,37.8662654 31.7809858,40.2443401 37.0859216,40.2443401 C41.4762132,40.2443401 43.3055014,38.658957 44.098193,37.2565027 C45.5616235,34.6954992 44.4640506,31.0369229 41.1103556,26.9515126 Z M42.2079285,36.2808823 C41.4762132,37.5004078 39.646925,38.1711468 37.0249453,38.1711468 C32.0858672,38.1711468 25.0735958,35.8540484 18.3052295,32.0125432 C12.8783413,28.9637296 8.24414453,25.244177 5.25630716,21.5856006 C2.57335115,18.2319056 1.53675452,15.3660208 2.51237488,13.6586851 C3.24409016,12.4391597 5.07337834,11.7684207 7.69535807,11.7684207 C12.6344362,11.7684207 19.6467076,14.0245428 26.4150738,17.9270242 C31.8419621,20.9758379 36.4761589,24.6953905 39.4639962,28.3539669 C42.1469522,31.7076619 43.1835489,34.5735467 42.2079285,36.2808823 Z" id="Shape"></path>
            <path d="M22.3906398,20.3660751 C19.8296364,20.3660751 17.8174194,22.4392684 17.8174194,24.9392956 C17.8174194,27.5002991 19.8906126,29.5125161 22.3906398,29.5125161 C24.9516433,29.5125161 26.9638603,27.4393228 26.9638603,24.9392956 C26.9638603,22.4392684 24.890667,20.3660751 22.3906398,20.3660751 Z" id="Shape"></path>
            <circle id="Oval" cx="8.06121571" cy="10.6708477" r="3.41467128"></circle>
            <circle id="Oval" cx="41.5371895" cy="20.0611938" r="3.41467128"></circle>
        </g>
    </g>
</svg>