<?xml version="1.0" encoding="UTF-8"?>
<svg width="50px" height="50px" viewBox="0 0 50 50" version="1.1" xmlns="http://www.w3.org/2000/svg" xmlns:xlink="http://www.w3.org/1999/xlink">
    <!-- Generator: Sketch 49.1 (51147) - http://www.bohemiancoding.com/sketch -->
    <title>linkedin</title>
    <desc>Created with Sketch.</desc>
    <defs></defs>
    <g id="linkedin" stroke="none" stroke-width="1" fill="none" fill-rule="evenodd">
        <g id="In-White-0p5in-TM" fill="#25B7C4">
            <g id="Group-3">
                <path d="M42.6041667,42.6055556 L35.1944444,42.6055556 L35.1944444,31.0027778 C35.1944444,28.2361111 35.1416667,24.6763889 31.3402778,24.6763889 C27.4805556,24.6763889 26.8916667,27.6888889 26.8916667,30.8027778 L26.8916667,42.6055556 L19.4847222,42.6055556 L19.4847222,18.7458333 L26.5930556,18.7458333 L26.5930556,22.0055556 L26.6958333,22.0055556 C27.6847222,20.1291667 30.1055556,18.1513889 33.7125,18.1513889 C41.2166667,18.1513889 42.6041667,23.0916667 42.6041667,29.5180556 L42.6041667,42.6055556 Z M11.1236111,15.4819444 C8.74027778,15.4819444 6.82083333,13.5555556 6.82083333,11.1819444 C6.82083333,8.81111111 8.74027778,6.88333333 11.1236111,6.88333333 C13.4958333,6.88333333 15.4222222,8.81111111 15.4222222,11.1819444 C15.4222222,13.5555556 13.4958333,15.4819444 11.1236111,15.4819444 Z M7.40972222,42.6055556 L14.8333333,42.6055556 L14.8333333,18.7458333 L7.40972222,18.7458333 L7.40972222,42.6055556 Z M46.2972222,0 L3.6875,0 C1.65277778,0 0,1.61388889 0,3.60277778 L0,46.3916667 C0,48.3833333 1.65277778,50 3.6875,50 L46.2972222,50 C48.3361111,50 50.0013889,48.3833333 50.0013889,46.3916667 L50.0013889,3.60277778 C50.0013889,1.61388889 48.3361111,0 46.2972222,0 Z" id="Fill-1"></path>
            </g>
        </g>
    </g>
</svg>