<?xml version="1.0" encoding="UTF-8"?>
<svg width="50px" height="50px" viewBox="0 0 50 50" version="1.1" xmlns="http://www.w3.org/2000/svg" xmlns:xlink="http://www.w3.org/1999/xlink">
    <!-- Generator: Sketch 49.1 (51147) - http://www.bohemiancoding.com/sketch -->
    <title>medium</title>
    <desc>Created with Sketch.</desc>
    <defs></defs>
    <g id="medium" stroke="none" stroke-width="1" fill="none" fill-rule="evenodd">
        <path d="M0,0 L50,0 L50,50 L0,50 L0,0 Z M11.9318155,16.7219886 L11.9318155,31.5681574 C12.0231753,32.1037141 11.8543493,32.6507887 11.4770524,33.0418005 L7.94871795,37.3216359 L7.94871795,37.8860097 L17.9535062,37.8860097 L17.9535062,37.3216359 L14.4251718,33.0418005 C14.0451077,32.6514359 13.8658276,32.1079664 13.9390457,31.5681574 L13.9390457,18.7286513 L22.720678,37.8860097 L23.7399746,37.8860097 L31.2827695,18.7286513 L31.2827695,33.9981008 C31.2827695,34.4057041 31.2827695,34.4840892 31.0161844,34.7505992 L28.3032872,37.3843441 L28.3032872,37.9487179 L41.4757356,37.9487179 L41.4757356,37.3843441 L38.8569274,34.8133074 C38.6257497,34.6370903 38.5110738,34.3474651 38.5589792,34.060809 L38.5589792,15.1699604 C38.5110738,14.8833042 38.6257497,14.5936789 38.8569274,14.4174618 L41.5384615,11.8464252 L41.5384615,11.2820513 L32.2550218,11.2820513 L25.6374345,27.7899877 L18.1103211,11.2820513 L8.37211808,11.2820513 L8.37211808,11.8464252 L11.5084153,15.6245949 C11.8163077,15.9021105 11.9735482,16.3096557 11.9318155,16.7219886 Z" id="Combined-Shape" fill="#25B7C4" fill-rule="nonzero"></path>
    </g>
</svg>