<?xml version="1.0" encoding="UTF-8"?>
<svg width="50px" height="50px" viewBox="0 0 50 50" version="1.1" xmlns="http://www.w3.org/2000/svg" xmlns:xlink="http://www.w3.org/1999/xlink">
    <!-- Generator: Sketch 49.1 (51147) - http://www.bohemiancoding.com/sketch -->
    <title>memoria</title>
    <desc>Created with Sketch.</desc>
    <defs></defs>
    <g id="memoria" stroke="none" stroke-width="1" fill="none" fill-rule="evenodd">
        <g id="ram-memory-4" fill="#25B7C4" fill-rule="nonzero">
            <path d="M23.7255361,36.1231445 L23.2667641,35.6634766 L23.5448343,35.3848633 C23.8353801,35.09375 23.8353801,34.6217773 23.5448343,34.3307617 C23.2542885,34.0396484 22.7832359,34.0396484 22.4927875,34.3307617 L22.2147173,34.609375 L20.9628655,33.3550781 L21.2409357,33.0764648 C21.5314815,32.7853516 21.5314815,32.3133789 21.2409357,32.0223633 C20.9503899,31.73125 20.4793372,31.73125 20.1888889,32.0223633 L19.9108187,32.3009766 L18.6589669,31.0466797 L18.937037,30.7680664 C19.2275828,30.4769531 19.2275828,30.0049805 18.937037,29.7139648 C18.6464912,29.4227539 18.1754386,29.4228516 17.8849903,29.7139648 L17.6069201,29.9925781 L16.3547758,28.7380859 L16.632846,28.4594727 C16.9233918,28.1683594 16.9233918,27.6963867 16.632846,27.4053711 C16.3423002,27.1141602 15.8712476,27.1142578 15.5807992,27.4053711 L15.302729,27.6839844 L15.1935673,27.5746094 C14.6552632,27.0353516 13.7793372,27.0353516 13.2410331,27.5746094 L9.43898635,31.384082 C9.17816764,31.6454102 9.03460039,31.9927734 9.03460039,32.362207 C9.03460039,32.7317383 9.17816764,33.0791016 9.43898635,33.340332 L9.54814815,33.449707 L9.15867446,33.8399414 C8.86812865,34.1310547 8.86812865,34.6029297 9.15867446,34.894043 C9.30389864,35.0396484 9.49434698,35.1124023 9.68469786,35.1124023 C9.87504873,35.1124023 10.0654971,35.0396484 10.2107212,34.894043 L10.6001949,34.5038086 L11.8520468,35.7581055 L11.4625731,36.1483398 C11.1720273,36.4394531 11.1720273,36.9114258 11.4625731,37.2024414 C11.6077973,37.3479492 11.7982456,37.4208008 11.9885965,37.4208008 C12.1789474,37.4208008 12.3693957,37.3480469 12.5146199,37.2024414 L12.9040936,36.812207 L14.1559454,38.0664063 L13.7664717,38.4566406 C13.4759259,38.7477539 13.4759259,39.2197266 13.7664717,39.5107422 C13.9116959,39.65625 14.1021442,39.7291016 14.2924951,39.7291016 C14.482846,39.7291016 14.6732943,39.6563477 14.8185185,39.5107422 L15.2079922,39.1205078 L16.4598441,40.3748047 L16.0703704,40.7650391 C15.7800195,41.0563477 15.7800195,41.5283203 16.0705653,41.8194336 C16.2157895,41.9649414 16.4062378,42.037793 16.5965887,42.037793 C16.7869396,42.037793 16.9773879,41.9650391 17.1226121,41.8194336 L17.5120858,41.4291992 L17.9709552,41.8889648 C18.2400585,42.1585938 18.5936647,42.2933594 18.9471735,42.2933594 C19.3007797,42.2933594 19.6542885,42.1584961 19.9234893,41.8888672 L23.7254386,38.0793945 C23.9862573,37.8180664 24.1298246,37.4707031 24.1298246,37.1011719 C24.1298246,36.7316406 23.9862573,36.384375 23.7255361,36.1231445 Z M18.9476608,40.7589844 L15.7344055,37.5397461 L15.734308,37.5396484 L15.7342105,37.5395508 L13.4306043,35.2314453 C13.4305068,35.2313477 13.4304094,35.23125 13.4304094,35.2311523 C13.4303119,35.2310547 13.4302144,35.230957 13.430117,35.230957 L10.5670565,32.3623047 L14.2174464,28.7047852 L14.7768031,29.2652344 C14.7768031,29.2652344 14.7768031,29.2652344 14.7769006,29.265332 C14.7769006,29.265332 14.7769006,29.265332 14.7769981,29.265332 L17.0808967,31.5737305 C17.0808967,31.5737305 17.0808967,31.5737305 17.0809942,31.5738281 C17.0809942,31.5738281 17.0809942,31.5738281 17.0810916,31.5738281 L22.5979532,37.1014648 L18.9476608,40.7589844 Z" id="Shape"></path>
            <path d="M32.8706628,26.9599609 L32.4118908,26.500293 L32.689961,26.2216797 C32.9805068,25.9305664 32.9805068,25.4585937 32.689961,25.1675781 C32.3994152,24.8764648 31.9283626,24.8764648 31.6379142,25.1675781 L31.3598441,25.4461914 L30.1079922,24.1918945 L30.3860624,23.9132813 C30.6766082,23.622168 30.6766082,23.1501953 30.3860624,22.8591797 C30.0955166,22.5679687 29.6244639,22.5680664 29.3340156,22.8591797 L29.0559454,23.137793 L27.8040936,21.8834961 L28.0821637,21.6048828 C28.3727096,21.3137695 28.3727096,20.8417969 28.0821637,20.5507812 C27.7916179,20.2595703 27.3205653,20.259668 27.030117,20.5507812 L26.7520468,20.8293945 L25.5001949,19.5750977 L25.7781676,19.296582 C26.0687135,19.0054687 26.0687135,18.5334961 25.7781676,18.2424805 C25.4876218,17.9513672 25.0165692,17.9513672 24.7261209,18.2424805 L24.4481481,18.5209961 L24.3389864,18.4116211 C23.8006823,17.8723633 22.9247563,17.8723633 22.3864522,18.4116211 L18.5844055,22.2210937 C18.3235867,22.4824219 18.1800195,22.8297852 18.1800195,23.1992187 C18.1800195,23.56875 18.3235867,23.9161133 18.5844055,24.1773437 L18.6935673,24.2867187 L18.3040936,24.6769531 C18.0135478,24.9680664 18.0135478,25.4399414 18.3040936,25.7310547 C18.4493177,25.8766602 18.6397661,25.9494141 18.830117,25.9494141 C19.0204678,25.9494141 19.2109162,25.8766602 19.3561404,25.7310547 L19.745614,25.3408203 L20.9974659,26.5951172 L20.6079922,26.9853516 C20.3174464,27.2764648 20.3174464,27.7484375 20.6079922,28.0394531 C20.7532164,28.1849609 20.9436647,28.2578125 21.1340156,28.2578125 C21.3243665,28.2578125 21.5148148,28.1850586 21.660039,28.0394531 L22.0495127,27.6492187 L23.3013645,28.9035156 L22.9118908,29.29375 C22.621345,29.5848633 22.621345,30.0568359 22.9118908,30.3478516 C23.057115,30.4933594 23.2475634,30.5662109 23.4379142,30.5662109 C23.6282651,30.5662109 23.8187135,30.493457 23.9639376,30.3478516 L24.3534113,29.9576172 L25.6052632,31.2119141 L25.2157895,31.6021484 C24.9253411,31.8932617 24.9253411,32.365332 25.2158869,32.6563477 C25.3611111,32.8018555 25.5515595,32.874707 25.7419103,32.874707 C25.9322612,32.874707 26.1227096,32.8019531 26.2679337,32.6563477 L26.6574074,32.2661133 L27.1161793,32.7257812 C27.3769981,32.9871094 27.7236842,33.130957 28.0923977,33.130957 C28.4612086,33.130957 28.8078947,32.9871094 29.068616,32.7257812 L32.8706628,28.9163086 C33.1314815,28.6549805 33.2750487,28.3076172 33.2750487,27.9380859 C33.2750487,27.5685547 33.1315789,27.2211914 32.8706628,26.9599609 Z M28.092885,31.5960937 L27.184308,30.6857422 C27.1842105,30.6856445 27.1840156,30.6854492 27.1839181,30.6853516 C27.1838207,30.6852539 27.1836257,30.6850586 27.1834308,30.6849609 L24.8800195,28.3768555 C24.879922,28.3767578 24.8797271,28.3765625 24.8796296,28.3764648 C24.8795322,28.3763672 24.8793372,28.3761719 24.8791423,28.3760742 L22.5760234,26.068457 C22.5759259,26.0683594 22.575731,26.0681641 22.5756335,26.0680664 C22.5755361,26.0679687 22.5753411,26.0677734 22.5751462,26.0676758 L19.7122807,23.1992187 L23.3626706,19.5416992 L23.9220273,20.1020508 C23.9220273,20.1020508 23.9220273,20.1020508 23.9221248,20.1021484 C23.9221248,20.1021484 23.9221248,20.1021484 23.9222222,20.1022461 L26.2261209,22.4106445 C26.2261209,22.4106445 26.2261209,22.4106445 26.2262183,22.4107422 C26.2263158,22.4108398 26.2262183,22.4107422 26.2263158,22.4108398 L28.5302144,24.7192383 C28.5302144,24.7192383 28.5302144,24.7192383 28.5303119,24.7193359 C28.5303119,24.7193359 28.5303119,24.7193359 28.5304094,24.7194336 L31.7432749,27.9385742 L28.092885,31.5960937 Z" id="Shape"></path>
            <path d="M42.0158869,17.796875 L41.557115,17.337207 L41.8351852,17.0585938 C42.125731,16.7674805 42.125731,16.2956055 41.8351852,16.0044922 C41.5447368,15.7133789 41.0736842,15.7133789 40.7831384,16.0044922 L40.5050682,16.2831055 L39.2532164,15.0288086 L39.5312865,14.7501953 C39.8218324,14.459082 39.8218324,13.9871094 39.5312865,13.6960937 C39.2407407,13.4048828 38.7696881,13.4049805 38.4792398,13.6960937 L38.2011696,13.974707 L36.9493177,12.7203125 L37.2273879,12.4416992 C37.5179337,12.1505859 37.5179337,11.6786133 37.2273879,11.3875977 C36.9368421,11.0963867 36.4657895,11.0964844 36.1753411,11.3875977 L35.897271,11.6662109 L34.6454191,10.4119141 L34.9233918,10.1333984 C35.2139376,9.84228516 35.2139376,9.3703125 34.9233918,9.07929688 C34.632846,8.78818359 34.1617934,8.78818359 33.871345,9.07929688 L33.5933723,9.3578125 L33.4842105,9.2484375 C32.9459064,8.70917969 32.0699805,8.70917969 31.5316764,9.2484375 L27.7295322,13.0580078 C27.1913255,13.5973633 27.1913255,14.475 27.7296296,15.0142578 L27.8387914,15.1236328 L27.4493177,15.5138672 C27.1587719,15.8049805 27.1587719,16.2768555 27.4493177,16.5679688 C27.5945419,16.7135742 27.7849903,16.7863281 27.9753411,16.7863281 C28.165692,16.7863281 28.3561404,16.7135742 28.5013645,16.5679688 L28.8908382,16.1777344 L30.1426901,17.4320313 L29.7532164,17.8222656 C29.4626706,18.1133789 29.4626706,18.5852539 29.7532164,18.8763672 C29.8984405,19.0219727 30.0888889,19.0947266 30.2792398,19.0947266 C30.4695906,19.0947266 30.660039,19.0219727 30.8052632,18.8763672 L31.1947368,18.4861328 L32.4465887,19.7404297 L32.057115,20.1306641 C31.7665692,20.4217773 31.7665692,20.89375 32.057115,21.1847656 C32.2023392,21.3302734 32.3927875,21.403125 32.5831384,21.403125 C32.7734893,21.403125 32.9639376,21.3303711 33.1091618,21.1847656 L33.4986355,20.7945313 L34.7504873,22.0488281 L34.3610136,22.4390625 C34.0705653,22.7301758 34.0705653,23.2021484 34.3611111,23.4932617 C34.5063353,23.6387695 34.6967836,23.7116211 34.8871345,23.7116211 C35.0774854,23.7116211 35.2679337,23.6388672 35.4131579,23.4932617 L35.8026316,23.1030273 L36.2614035,23.5626953 C36.5222222,23.8240234 36.8689084,23.9678711 37.2376218,23.9678711 C37.6064327,23.9678711 37.9531189,23.8240234 38.2138402,23.5626953 L42.0158869,19.7532227 C42.2767057,19.4918945 42.4202729,19.1445313 42.4202729,18.775 C42.4202729,18.4054688 42.2768031,18.0581055 42.0158869,17.796875 Z M37.2382066,22.4329102 L36.3296296,21.5225586 C36.3295322,21.5224609 36.3293372,21.5222656 36.3292398,21.522168 C36.3291423,21.5220703 36.3289474,21.521875 36.3287524,21.5217773 L34.0252437,19.2137695 C34.0251462,19.2136719 34.0249513,19.2134766 34.0248538,19.2133789 C34.0247563,19.2132813 34.0245614,19.2130859 34.0243665,19.2129883 L28.8575049,14.0360352 L32.5078947,10.3785156 L33.0672515,10.9389648 C33.0672515,10.9389648 33.0672515,10.9389648 33.0673489,10.9390625 C33.0673489,10.9390625 33.0673489,10.9390625 33.0674464,10.9390625 L35.371345,13.2474609 C35.371345,13.2474609 35.371345,13.2474609 35.3714425,13.2475586 C35.37154,13.2476563 35.3714425,13.2475586 35.37154,13.2476563 L37.6754386,15.5560547 C37.6754386,15.5560547 37.6754386,15.5560547 37.6755361,15.5561523 C37.6756335,15.55625 37.6755361,15.5561523 37.6756335,15.55625 L39.9794347,17.8645508 C39.9794347,17.8645508 39.9794347,17.8645508 39.9795322,17.8646484 C39.9795322,17.8646484 39.9795322,17.8646484 39.9796296,17.8646484 L40.8885965,18.7753906 L37.2382066,22.4329102 Z" id="Shape"></path>
            <path d="M49.5807018,16.3147461 L43.2253411,9.94697266 C42.9347953,9.65585938 42.4637427,9.65585938 42.1732943,9.94697266 L41.5682261,10.5532227 C41.3326511,10.7892578 40.9493177,10.7892578 40.7137427,10.5532227 C40.4781676,10.3171875 40.4781676,9.93320313 40.7137427,9.69716797 L41.3188109,9.09091797 C41.4583821,8.95117188 41.5367446,8.76152344 41.5367446,8.56386719 C41.5367446,8.36621094 41.4583821,8.1765625 41.3188109,8.03681641 L34.9634503,1.66914062 C34.4051657,1.10966797 33.4966862,1.10976562 32.938499,1.66914062 L32.3199805,2.28886719 L30.4707602,0.4359375 C29.8909357,-0.145019531 28.9473684,-0.145214844 28.3674464,0.4359375 L0.532358674,28.325293 C-0.0475633528,28.9063477 -0.0475633528,29.8517578 0.532358674,30.4328125 L2.38148148,32.2855469 L1.7628655,32.9052734 C1.49239766,33.1762695 1.34346979,33.5365234 1.34346979,33.9197266 C1.34346979,34.3029297 1.49239766,34.6632812 1.7628655,34.9341797 L8.11822612,41.3019531 C8.25779727,41.4417969 8.44697856,41.5203125 8.64424951,41.5203125 C8.84152047,41.5203125 9.03079922,41.4417969 9.17037037,41.3019531 L9.77534113,40.6957031 C9.88947368,40.5813477 10.0412281,40.5183594 10.2025341,40.5183594 C10.3638402,40.5183594 10.515692,40.5813477 10.6297271,40.6957031 C10.7438596,40.8100586 10.8066277,40.9621094 10.8066277,41.1237305 C10.8066277,41.2853516 10.7437622,41.4375 10.6296296,41.5517578 L10.0245614,42.1580078 C9.73401559,42.4491211 9.73411306,42.9210937 10.0245614,43.2121094 L16.3798246,49.5797852 C16.6502924,49.8507812 17.0098441,50 17.3923002,50 C17.7747563,50 18.1344055,49.8507812 18.4047758,49.5797852 L40.6862573,27.2547852 C40.9768031,26.9636719 40.9768031,26.4916992 40.6862573,26.2006836 C40.3957115,25.9095703 39.9246589,25.9095703 39.6342105,26.2006836 L17.3925926,48.4860352 L11.6030214,42.6851562 L11.6820663,42.605957 C12.4977583,41.7886719 12.4977583,40.4587891 11.6820663,39.6415039 C11.2869396,39.2456055 10.7615984,39.0275391 10.202729,39.0275391 C9.64385965,39.0275391 9.11851852,39.2456055 8.72339181,39.6415039 L8.64434698,39.7207031 L2.85477583,33.9198242 L3.95945419,32.8129883 C3.95955166,32.8128906 3.95964912,32.812793 3.95984405,32.8126953 C3.95994152,32.8125977 3.96003899,32.8125 3.96013645,32.8123047 L6.50867446,30.2587891 C6.79922027,29.9676758 6.79922027,29.4957031 6.50867446,29.2046875 C6.21822612,28.9135742 5.74717349,28.9135742 5.45662768,29.2046875 L3.4337232,31.2314453 L1.58460039,29.3793945 L2.51929825,28.4428711 L3.34532164,29.2705078 C3.49054581,29.4160156 3.68099415,29.4888672 3.87134503,29.4888672 C4.06169591,29.4888672 4.25214425,29.4161133 4.39736842,29.2705078 C4.68791423,28.9793945 4.68791423,28.5074219 4.39736842,28.2164063 L3.57134503,27.3887695 L5.01052632,25.9466797 L5.83654971,26.7743164 C5.98177388,26.9198242 6.17222222,26.9926758 6.3625731,26.9926758 C6.55292398,26.9926758 6.74337232,26.9199219 6.88859649,26.7743164 C7.1791423,26.4832031 7.1791423,26.0112305 6.88859649,25.7202148 L6.0625731,24.8925781 L7.50185185,23.4504883 L8.32797271,24.2782227 C8.47319688,24.4237305 8.66364522,24.496582 8.8539961,24.496582 C9.04434698,24.496582 9.23479532,24.4238281 9.38001949,24.2782227 C9.6705653,23.9871094 9.6705653,23.5151367 9.38001949,23.2241211 L8.55389864,22.3963867 L9.99307992,20.9542969 L10.8192008,21.7820313 C10.964425,21.9275391 11.1548733,22.0003906 11.3452242,22.0003906 C11.535575,22.0003906 11.7260234,21.9276367 11.8712476,21.7820313 C12.1617934,21.490918 12.1617934,21.0189453 11.8712476,20.7279297 L11.0451267,19.9001953 L12.4844055,18.4581055 L13.3105263,19.2858398 C13.4557505,19.4314453 13.6461988,19.5041992 13.8365497,19.5041992 C14.0269006,19.5041992 14.2173489,19.4314453 14.3625731,19.2858398 C14.6531189,18.9947266 14.6531189,18.5227539 14.3625731,18.2317383 L13.5364522,17.4040039 L14.975731,15.9619141 L15.8019493,16.7897461 C15.9471735,16.9352539 16.1376218,17.0081055 16.3279727,17.0081055 C16.5183236,17.0081055 16.7087719,16.9353516 16.8539961,16.7897461 C17.1445419,16.4986328 17.1445419,16.0266602 16.8539961,15.7356445 L16.0277778,14.9078125 L17.4669591,13.4657227 L18.2931774,14.2935547 C18.4384016,14.4390625 18.6288499,14.5119141 18.8192008,14.5119141 C19.0095517,14.5119141 19.2,14.4391602 19.3452242,14.2935547 C19.63577,14.0024414 19.63577,13.5304688 19.3452242,13.2394531 L18.5190058,12.4116211 L19.9582846,10.9695313 L20.7845029,11.7974609 C20.9297271,11.9429688 21.1201754,12.0158203 21.3105263,12.0158203 C21.5008772,12.0158203 21.6913255,11.9430664 21.8365497,11.7974609 C22.1270955,11.5063477 22.1270955,11.034375 21.8365497,10.7433594 L21.0102339,9.91542969 L22.4495127,8.47333984 L23.275731,9.30126953 C23.4209552,9.446875 23.6114035,9.51962891 23.8017544,9.51962891 C23.9921053,9.51962891 24.1825536,9.446875 24.3277778,9.30126953 C24.6183236,9.01015625 24.6183236,8.53828125 24.3277778,8.24716797 L23.501462,7.41923828 L24.9407407,5.97714844 L25.7670565,6.80507813 C25.9122807,6.95058594 26.102729,7.0234375 26.2930799,7.0234375 C26.4834308,7.0234375 26.6738791,6.95068359 26.8191033,6.80507813 C27.1096491,6.51396484 27.1096491,6.04199219 26.8191033,5.75097656 L25.9927875,4.92304688 L27.4320663,3.48095703 L28.2584795,4.30898438 C28.4037037,4.45449219 28.594152,4.52734375 28.7845029,4.52734375 C28.9748538,4.52734375 29.1653021,4.45458984 29.3105263,4.30898438 C29.6010721,4.01787109 29.6010721,3.54589844 29.3105263,3.25488281 L28.4841131,2.42685547 L29.4184211,1.49072266 L31.2676413,3.34355469 L8.26208577,26.3935547 C7.97153996,26.684668 7.97153996,27.1566406 8.26208577,27.4476562 C8.40730994,27.5931641 8.59775828,27.6660156 8.78810916,27.6660156 C8.97846004,27.6660156 9.16890838,27.5932617 9.31413255,27.4476562 L33.9510721,2.76289063 L39.7407407,8.56376953 L39.6616959,8.64296875 C38.8460039,9.46025391 38.8460039,10.7900391 39.6616959,11.6073242 C40.0568226,12.0033203 40.5821637,12.2212891 41.1410331,12.2212891 C41.6999025,12.2212891 42.2252437,12.0033203 42.6203704,11.6073242 L42.6994152,11.528125 L48.4890838,17.3291016 L42.4403509,23.3896484 C42.1498051,23.6807617 42.1498051,24.1527344 42.4403509,24.44375 C42.7308967,24.7348633 43.2019493,24.7348633 43.4923977,24.44375 L49.5807018,18.3435547 C49.8511696,18.0726563 50.0000975,17.7123047 50.0000975,17.3291016 C50,16.9458984 49.8510721,16.5856445 49.5807018,16.3147461 Z" id="Shape"></path>
        </g>
    </g>
</svg>