<?xml version="1.0" encoding="UTF-8"?>
<svg width="50px" height="50px" viewBox="0 0 50 50" version="1.1" xmlns="http://www.w3.org/2000/svg" xmlns:xlink="http://www.w3.org/1999/xlink">
    <!-- Generator: Sketch 49.1 (51147) - http://www.bohemiancoding.com/sketch -->
    <title>nexum</title>
    <desc>Created with Sketch.</desc>
    <defs></defs>
    <g id="nexum" stroke="none" stroke-width="1" fill="none" fill-rule="evenodd">
        <g id="hand-with-smartphone-and-wireless-internet" transform="translate(4.000000, 0.000000)" fill="#25B7C4" fill-rule="nonzero">
            <path d="M8.49285714,4.17285714 L7.41285714,3.09571429 C11.5371429,-1.03 18.25,-1.03142857 22.3742857,3.09428571 L21.2942857,4.17571429 C17.7642857,0.645714286 12.0214286,0.645714286 8.49285714,4.17285714 Z M20.5071429,4.96285714 C17.41,1.86857143 12.3742857,1.86857143 9.28,4.96428571 L10.3614286,6.04285714 C12.8585714,3.54285714 16.9285714,3.54285714 19.4285714,6.04142857 L20.5071429,4.96285714 Z M12.2914286,7.97142857 C13.7257143,6.53428571 16.0642857,6.53428571 17.5,7.97142857 L18.58,6.89 C16.5485714,4.85714286 13.2428571,4.85714286 11.2085714,6.89142857 L12.2914286,7.97142857 Z M25.2042857,22.1671429 L24.8614286,22.51 C24.0971429,23.2742857 24.0971429,24.5128571 24.8642857,25.2771429 L25.0142857,25.4271429 C25.7785714,26.1928571 27.0128571,26.1928571 27.78,25.4285714 L30.3657143,22.8457143 L30.7042857,22.5042857 C31.4685714,21.74 31.4685714,20.5 30.7042857,19.7357143 L30.5514286,19.5842857 C29.7914286,18.82 28.5528571,18.82 27.7842857,19.5842857 L25.2042857,22.1671429 Z M30.8957143,23.38 L28.3114286,25.9642857 C27.5514286,26.7257143 27.5514286,27.9657143 28.3114286,28.73 L28.46,28.8814286 C29.2242857,29.6442857 30.4614286,29.6442857 31.2271429,28.8814286 L31.57,28.5371429 L33.8085714,26.3014286 L34.1471429,25.9585714 C34.9142857,25.1942857 34.9114286,23.9585714 34.15,23.19 L34,23.04 C33.2371429,22.2771429 32.0014286,22.2728571 31.2328571,23.0385714 L30.8957143,23.38 Z M39.4257143,35.94 L27.8828571,47.4842857 C26.92,48.4471429 25.3442857,48.4471429 24.3842857,47.4857143 L22.3971429,45.4971429 L20.2942857,47.5971429 C20.2942857,47.5971429 17.1642857,50.7057143 12.9228571,49.8271429 C12.89,49.82 12.8557143,49.8157143 12.8242857,49.8085714 C12.64,49.7685714 12.4514286,49.7142857 12.2642857,49.6585714 C12.1114286,49.6128571 11.9514286,49.5585714 11.7957143,49.5014286 C11.6428571,49.4442857 11.4885714,49.3928571 11.3328571,49.3228571 C11.02,49.1871429 10.7071429,49.0328571 10.3885714,48.8471429 C10.2957143,48.7914286 10.1971429,48.7228571 10.1014286,48.6628571 C9.83428571,48.4985714 9.56571429,48.3114286 9.29571429,48.1057143 C9.19142857,48.0257143 9.08571429,47.9457143 8.97714286,47.8585714 C8.61714286,47.5685714 8.25571429,47.2557143 7.89142857,46.89 C3.80428571,42.8028571 3.98285714,39.1614286 4.74714286,37.3228571 C4.75,37.3171429 5.37285714,35.0228571 6.12857143,32.2885714 C6.34142857,31.5114286 6.56857143,30.7028571 6.79,29.8928571 L1.98571429,25.0871429 C1.02285714,24.1257143 1.02285714,22.5514286 1.98571429,21.5871429 L13.5285714,10.0457143 C14.4914286,9.08285714 16.0671429,9.08285714 17.0271429,10.0457143 L23.7242857,16.74 L24.3328571,16.13 C25.0971429,15.3657143 26.3357143,15.3685714 27.1014286,16.13 L27.2514286,16.2828571 C28.0157143,17.0457143 28.0157143,18.2828571 27.2514286,19.0485714 L26.91,19.3928571 L24.6742857,21.63 L24.3285714,21.9728571 C23.5685714,22.7342857 22.3342857,22.7385714 21.5642857,21.9728571 L21.4157143,21.8242857 C20.6528571,21.0585714 20.6528571,19.82 21.4157143,19.0557143 L21.7557143,18.7128571 L21.7557143,18.7114286 L22.51,17.9571429 L16.8385714,12.2871429 L4.22714286,24.8942857 L7.32428571,27.9885714 C7.85142857,26.1028571 8.32285714,24.4585714 8.57142857,23.6757143 C9.35571429,21.1914286 11.3357143,21.2828571 12.2771429,22.7942857 C13.01,23.9585714 12.4414286,26.6114286 12.0614286,29.6142857 C11.9857143,30.2071429 11.7871429,31.1814286 11.5557143,32.2157143 L24.1171429,44.7757143 L36.7214286,32.1685714 L35.7857143,31.2328571 L34.6857143,32.3328571 C33.9228571,33.0971429 32.6857143,33.0942857 31.92,32.3328571 L31.7671429,32.18 C31.0042857,31.4185714 31.0042857,30.1828571 31.7671429,29.4142857 L32.11,29.0714286 L34.3485714,26.8342857 L34.6871429,26.4914286 C35.4514286,25.7285714 36.6871429,25.7271429 37.4557143,26.49 L37.6042857,26.64 C38.3714286,27.4042857 38.3685714,28.6414286 37.6042857,29.4085714 L37.2657143,29.7485714 L37.2685714,29.7514286 L37,30.0171429 L39.4242857,32.4414286 C40.3871429,33.4028571 40.3871429,34.9757143 39.4257143,35.94 Z M7.17285714,19.3485714 C7.28714286,19.4657143 7.48,19.4628571 7.59428571,19.3471429 L11.2885714,15.6528571 C11.4057143,15.5371429 11.4057143,15.3471429 11.2885714,15.2314286 C11.1714286,15.1142857 10.9814286,15.1142857 10.8671429,15.23 L7.17285714,18.9242857 C7.05571429,19.0414286 7.05571429,19.23 7.17285714,19.3485714 Z M32.7785714,39.0885714 C32.2957143,38.6042857 31.5114286,38.6042857 31.0285714,39.0885714 C30.5457143,39.5728571 30.5485714,40.3557143 31.0285714,40.8385714 C31.5142857,41.3228571 32.2957143,41.3228571 32.7785714,40.84 C33.26,40.3557143 33.26,39.5742857 32.7785714,39.0885714 Z" id="Shape"></path>
        </g>
    </g>
</svg>