<?xml version="1.0" encoding="UTF-8"?>
<svg width="50px" height="50px" viewBox="0 0 50 50" version="1.1" xmlns="http://www.w3.org/2000/svg" xmlns:xlink="http://www.w3.org/1999/xlink">
    <!-- Generator: Sketch 63.1 (92452) - https://sketch.com -->
    <title>phab</title>
    <desc>Created with Sketch.</desc>
    <g id="phab" stroke="none" stroke-width="1" fill="none" fill-rule="evenodd">
        <g transform="translate(0.000000, 7.000000)" fill="#25B7C4" fill-rule="nonzero" id="Shape">
            <path d="M31.6814516,19.3706653 L31.6716734,18.099496 C31.6716734,18.099496 33.7935484,16.1634073 33.734879,16.0265121 L32.8059476,14.0708669 C32.7472782,13.9339718 29.921371,14.0219758 29.921371,14.0219758 L29.0022177,13.1126008 C29.0022177,13.1126008 29.0217742,10.3258065 28.884879,10.2671371 L26.9194556,9.36754032 C26.7825605,9.30887097 24.8953629,11.4209677 24.8953629,11.4209677 L23.6144153,11.4014113 C23.6144153,11.4014113 21.609879,9.30887097 21.4729839,9.36754032 L19.5173387,10.1791331 C19.3804435,10.2280242 19.5368952,13.0050403 19.5368952,13.0050403 L18.6470766,13.8948589 C18.6470766,13.8948589 15.7918347,13.8068548 15.7429435,13.9339718 L14.9509073,15.8700605 C14.8922379,16.0069556 17.0043347,17.9234879 17.0043347,17.9234879 L17.0141129,19.184879 C17.0141129,19.184879 14.8922379,21.1209677 14.9509073,21.2578629 L15.8798387,23.2135081 C15.9385081,23.3504032 18.7644153,23.2623992 18.7644153,23.2623992 L19.6835685,24.1717742 C19.6835685,24.1717742 19.6640121,27.28125 19.8009073,27.3301411 L21.7663306,28.1417339 C21.9032258,28.2004032 23.7904234,25.8438508 23.7904234,25.8438508 L25.071371,25.8634073 C25.071371,25.8634073 27.0759073,28.190625 27.2030242,28.1417339 L29.1586694,27.4083669 C29.2955645,27.3496976 29.1391129,24.2695565 29.1391129,24.2695565 L30.0289315,23.3797379 C30.0289315,23.3797379 32.8841734,23.4677419 32.9330645,23.3308468 L33.7251008,21.3947581 C33.7935484,21.2871976 31.6814516,19.3706653 31.6814516,19.3706653 L31.6814516,19.3706653 Z M27.2910282,18.5199597 C27.3594758,20.1920363 26.0394153,21.609879 24.3477823,21.6881048 C22.6561492,21.7663306 21.2089718,20.4658266 21.1405242,18.79375 C21.0720766,17.1216734 22.3921371,15.7038306 24.0837702,15.6353831 C25.7754032,15.5571573 27.2225806,16.8576613 27.2910282,18.5199597 L27.2910282,18.5199597 Z M46.9648185,14.8140121 L37.4799395,5.32913306 L37.4701613,5.33891129 C30.1267137,-1.82852823 18.3635081,-1.7796371 11.0885081,5.4953629 C6.11139113,10.4822581 8.37016129,8.2234879 1.73074597,14.8140121 C-0.449798387,16.9945565 -0.449798387,20.5538306 1.73074597,22.734375 C8.56572581,29.5204637 6.26784274,27.2323589 11.2547379,32.219254 L11.2645161,32.2094758 C18.6079637,39.3769153 30.3711694,39.3378024 37.6461694,32.0530242 C42.6330645,27.0759073 40.3742944,29.3248992 46.9648185,22.734375 C49.1453629,20.5538306 49.1453629,16.9945565 46.9648185,14.8140121 L46.9648185,14.8140121 Z M13.8264113,29.315121 C7.99858871,23.4970766 7.99858871,14.0610887 13.8264113,8.24304435 C19.6444556,2.41522177 29.0804435,2.425 34.9082661,8.24304435 C40.7263105,14.0610887 40.7360887,23.4970766 34.9082661,29.3248992 C29.0804435,35.1429435 19.6542339,35.1331653 13.8264113,29.315121 L13.8264113,29.315121 Z"></path>
        </g>
    </g>
</svg>