<?xml version="1.0" encoding="UTF-8"?>
<svg width="50px" height="50px" viewBox="0 0 50 50" version="1.1" xmlns="http://www.w3.org/2000/svg" xmlns:xlink="http://www.w3.org/1999/xlink">
    <!-- Generator: Sketch 49.2 (51160) - http://www.bohemiancoding.com/sketch -->
    <title>pinterest</title>
    <desc>Created with Sketch.</desc>
    <defs>
        <polygon id="path-1" points="0 0.00327868852 49.9967213 0.00327868852 49.9967213 49.9999795 0 49.9999795"></polygon>
        <polygon id="path-3" points="0 0.00327868852 49.9969057 0.00327868852 49.9969057 50 0 50"></polygon>
    </defs>
    <g id="pinterest" stroke="none" stroke-width="1" fill="none" fill-rule="evenodd">
        <g id="badgeRGB">
            <g id="Group-3" transform="translate(0.000000, 0.201639)">
                <mask id="mask-2" fill="white">
                    <use xlink:href="#path-1"></use>
                </mask>
                <g id="Clip-2"></g>
                <path d="M49.9967213,25.0016189 C49.9967213,38.8079713 38.8045082,49.9999795 24.9983607,49.9999795 C11.1922131,49.9999795 0,38.8079713 0,25.0016189 C0,11.1952664 11.1922131,0.00325819672 24.9983607,0.00325819672 C38.8045082,0.00325819672 49.9967213,11.1952664 49.9967213,25.0016189" id="Fill-1" fill-opacity="0" fill="#FFFFFF" mask="url(#mask-2)"></path>
            </g>
            <g id="Group-6" transform="translate(0.000000, 0.201639)">
                <mask id="mask-4" fill="white">
                    <use xlink:href="#path-3"></use>
                </mask>
                <g id="Clip-5"></g>
                <path d="M24.9983402,0.00323770492 C11.1921926,0.00323770492 -2.04918033e-05,11.1954508 -2.04918033e-05,25.0015984 C-2.04918033e-05,35.5919672 6.58911885,44.6456557 15.8882992,48.2880738 C15.6698566,46.3102049 15.4725205,43.2684016 15.9751844,41.1091803 C16.4292828,39.1583607 18.906332,28.6833607 18.906332,28.6833607 C18.906332,28.6833607 18.1585861,27.1858197 18.1585861,24.9718852 C18.1585861,21.4958607 20.1733402,18.9007787 22.6819467,18.9007787 C24.8147336,18.9007787 25.8448566,20.5022131 25.8448566,22.4222951 C25.8448566,24.5669672 24.4792828,27.7737295 23.7745697,30.7454508 C23.1856352,33.2337705 25.0223156,35.2628689 27.4764139,35.2628689 C31.9194467,35.2628689 35.3348156,30.5780328 35.3348156,23.8153279 C35.3348156,17.830082 31.0339959,13.645041 24.8928074,13.645041 C17.7801025,13.645041 13.6048975,18.980082 13.6048975,24.4938115 C13.6048975,26.6421721 14.4325615,28.9462705 15.4653484,30.1985246 C15.6696516,30.4460656 15.6995697,30.6630738 15.6389139,30.9155328 C15.4489549,31.7052869 15.0272336,33.4032377 14.9444467,33.7505738 C14.8354303,34.2081557 14.5821516,34.305082 14.1083811,34.085 C10.98625,32.6315164 9.03420082,28.0669672 9.03420082,24.4003689 C9.03420082,16.5147131 14.763709,9.27290984 25.5516189,9.27290984 C34.2235451,9.27290984 40.9626844,15.4522131 40.9626844,23.7106148 C40.9626844,32.3261885 35.5305123,39.2597951 27.9907582,39.2597951 C25.4577664,39.2597951 23.076209,37.9438115 22.2610451,36.3893033 C22.2610451,36.3893033 21.0075615,41.1622541 20.703668,42.3317213 C20.1393238,44.5032377 18.6157582,47.224959 17.5967008,48.8852049 C19.9356352,49.6093852 22.421291,50.0001639 24.9983402,50.0001639 C38.8046926,50.0001639 49.9969057,38.8079508 49.9969057,25.0015984 C49.9969057,11.1954508 38.8046926,0.00323770492 24.9983402,0.00323770492" id="Fill-4" fill="#25B7C4" mask="url(#mask-4)"></path>
            </g>
        </g>
    </g>
</svg>