<?xml version="1.0" encoding="UTF-8"?>
<svg width="50px" height="50px" viewBox="0 0 50 50" version="1.1" xmlns="http://www.w3.org/2000/svg" xmlns:xlink="http://www.w3.org/1999/xlink">
    <!-- Generator: Sketch 49.1 (51147) - http://www.bohemiancoding.com/sketch -->
    <title>snapchat</title>
    <desc>Created with Sketch.</desc>
    <defs>
        <polygon id="path-1" points="0 0.0886111111 49.9999735 0.0886111111 49.9999735 47.0833333 0 47.0833333"></polygon>
    </defs>
    <g id="snapchat" stroke="none" stroke-width="1" fill="none" fill-rule="evenodd">
        <g id="snap-ghost" transform="translate(0.000000, 1.000000)">
            <mask id="mask-2" fill="white">
                <use xlink:href="#path-1"></use>
            </mask>
            <g id="Clip-2"></g>
            <path d="M25.3093056,46.565 C25.1830556,46.565 25.0591667,46.5613889 24.9351389,46.5554167 L24.9348611,46.5554167 C24.8558333,46.5615278 24.7731944,46.565 24.6905556,46.565 C21.7898611,46.565 19.9280556,45.2488889 18.1277778,43.9759722 C16.8845833,43.0976389 15.7115278,42.2683333 14.3293056,42.0381944 C13.6548611,41.9265278 12.9836111,41.8698611 12.3348611,41.8698611 C11.1661111,41.8698611 10.2440278,42.0502778 9.57083333,42.1819444 C9.16180556,42.2619444 8.80888889,42.3306944 8.54069444,42.3306944 C8.26055556,42.3306944 7.95694444,42.2701389 7.825,41.8193056 C7.71027778,41.42875 7.62736111,41.0504167 7.54763889,40.6844444 C7.34194444,39.7426389 7.19597222,39.1633333 6.80125,39.1027778 C2.20069444,38.3922222 0.883888889,37.4231944 0.590277778,36.7356944 C0.54875,36.6373611 0.525138889,36.5388889 0.519444444,36.4413889 C0.504583333,36.1772222 0.691666667,35.9440278 0.952638889,35.9013889 C8.02486111,34.7368056 11.1963889,27.5084722 11.3280556,27.2015278 C11.3316667,27.1930556 11.3354167,27.1848611 11.3393056,27.1763889 C11.7722222,26.2991667 11.8569444,25.5377778 11.5920833,24.9136111 C11.1068056,23.7698611 9.52388889,23.2670833 8.47611111,22.9347222 C8.21972222,22.8536111 7.97666667,22.7769444 7.785,22.70125 C5.69416667,21.8745833 5.52013889,21.02625 5.60236111,20.59375 C5.7425,19.8569444 6.72708333,19.3434722 7.52347222,19.3434722 C7.74180556,19.3434722 7.93402778,19.3822222 8.09569444,19.4576389 C9.03625,19.8983333 9.88402778,20.1215278 10.6154167,20.1215278 C11.6259722,20.1215278 12.0670833,19.6968056 12.1209722,19.6411111 C12.0952778,19.1625 12.0634722,18.6626389 12.0309722,18.1468056 C11.8202778,14.8031944 11.5593056,10.6484722 12.6170833,8.27694444 C15.7875,1.16819444 22.5108333,0.615972222 24.4958333,0.615972222 C24.5466667,0.615972222 25.3661111,0.607222222 25.3661111,0.607222222 L25.4836111,0.606805556 C27.4731944,0.606805556 34.2111111,1.16 37.3833333,8.27263889 C38.4413889,10.6454167 38.1797222,14.8036111 37.96875,18.1447222 L37.96,18.29 C37.9308333,18.7552778 37.9025,19.2075 37.8788889,19.6404167 C37.9294444,19.6919444 38.3351389,20.0826389 39.2513889,20.1176389 L39.2523611,20.1176389 C39.9486111,20.0909722 40.7488889,19.8690278 41.6270833,19.4576389 C41.8844444,19.3375 42.1702778,19.3122222 42.3648611,19.3122222 C42.6620833,19.3122222 42.9633333,19.3697222 43.2134722,19.4740278 L43.2286111,19.4802778 C43.9390278,19.7319444 44.4043056,20.2298611 44.4143056,20.7501389 C44.4234722,21.24 44.0495833,21.9765278 42.215,22.70125 C42.0248611,22.7759722 41.7818056,22.8531944 41.5244444,22.9347222 C40.4755556,23.2676389 38.8930556,23.7698611 38.4080556,24.9134722 C38.1430556,25.5372222 38.2279167,26.2981944 38.6605556,27.1758333 C38.6644444,27.1843056 38.6688889,27.1925 38.6722222,27.2015278 C38.80375,27.5081944 41.9725,34.7344444 49.0477778,35.9004167 C49.3090278,35.9434722 49.4955556,36.1763889 49.48125,36.4408333 C49.4752778,36.5398611 49.45125,36.6397222 49.4088889,36.7366667 C49.1170833,37.4193056 47.8013889,38.3870833 43.1991667,39.0981944 C42.8231944,39.1559722 42.6775,39.6458333 42.4530556,40.6731944 C42.3715278,41.0470833 42.2888889,41.4143056 42.1751389,41.8005556 C42.0772222,42.1356944 41.8683333,42.2925 41.5169444,42.2925 L41.4597222,42.2925 C41.2158333,42.2925 40.8691667,42.2488889 40.4298611,42.1626389 C39.6506944,42.0102778 38.7770833,41.8698611 37.6656944,41.8698611 C37.0166667,41.8698611 36.345,41.9265278 35.6701389,42.0381944 C34.2894444,42.2683333 33.1170833,43.0959722 31.87625,43.9731944 C30.0723611,45.2488889 28.2108333,46.565 25.3093056,46.565" id="Fill-1" fill="#25B7C4" mask="url(#mask-2)"></path>
            <path d="M25.4836111,0.0886111111 L25.4815278,0.0886111111 C25.4384722,0.0886111111 25.3979167,0.0886111111 25.3594444,0.0894444444 C25.3594444,0.0894444444 24.5579167,0.0973611111 24.4943056,0.0973611111 C22.4316667,0.0973611111 15.4413889,0.671944444 12.1433333,8.06611111 C11.0341667,10.5536111 11.3,14.7784722 11.5133333,18.1734722 C11.5384722,18.57375 11.5651389,18.9893056 11.5880556,19.3909722 C11.4173611,19.4854167 11.1058333,19.6029167 10.6154167,19.6029167 C9.96069444,19.6029167 9.18694444,19.3963889 8.31597222,18.9880556 C8.08472222,18.8797222 7.81805556,18.8255556 7.52347222,18.8255556 C6.50333333,18.8255556 5.28305556,19.4966667 5.09319444,20.4970833 C4.95611111,21.2173611 5.27847222,22.2683333 7.59430556,23.1829167 C7.80319444,23.2655556 8.05444444,23.3451389 8.31986111,23.4290278 C9.27652778,23.7329167 10.7226389,24.1918056 11.115,25.1161111 C11.3183333,25.595 11.2372222,26.2113889 10.8745833,26.9475 C10.8666667,26.9641667 10.8586111,26.9805556 10.8513889,26.9977778 C10.7241667,27.2938889 7.66361111,34.2709722 0.868472222,35.3895833 C0.345972222,35.4758333 -0.0273611111,35.9419444 0.00152777778,36.4705556 C0.0105555556,36.6279167 0.0477777778,36.7844444 0.112222222,36.9363889 C0.622083333,38.1286111 2.77375,39.0022222 6.69069444,39.6101389 C6.82152778,39.7872222 6.95763889,40.4126389 7.04097222,40.79375 C7.12291667,41.1697222 7.20736111,41.5575 7.32763889,41.9665278 C7.44569444,42.36875 7.75236111,42.8494444 8.54069444,42.8494444 C8.85916667,42.8494444 9.235,42.7759722 9.66986111,42.6905556 C10.3225,42.5630556 11.2161111,42.3884722 12.3348611,42.3884722 C12.9551389,42.3884722 13.5981944,42.4423611 14.2456944,42.5497222 C15.5095833,42.7604167 16.5836111,43.5194444 17.8269444,44.3984722 C19.6080556,45.6577778 21.6248611,47.0833333 24.6905556,47.0833333 C24.7747222,47.0833333 24.8594444,47.0808333 24.9431944,47.0745833 C25.0426389,47.0788889 25.1718056,47.0833333 25.3093056,47.0833333 C28.3758333,47.0833333 30.3925,45.6575 32.1722222,44.3988889 C33.4183333,43.51875 34.4916667,42.7598611 35.7555556,42.5497222 C36.4019444,42.4423611 37.0451389,42.3884722 37.6656944,42.3884722 C38.7329167,42.3884722 39.5773611,42.5243056 40.3305556,42.6713889 C40.8025,42.76375 41.1822222,42.8106944 41.4597222,42.8106944 L41.48875,42.8111111 L41.5169444,42.8111111 C42.0991667,42.8111111 42.5101389,42.5034722 42.6730556,41.945 C42.7911111,41.5444444 42.8758333,41.1666667 42.9594444,40.7843056 C43.0423611,40.4041667 43.1780556,39.7816667 43.3084722,39.6055556 C47.2265278,38.9973611 49.3776389,38.1251389 49.8865278,36.9379167 C49.9519444,36.7859722 49.9894444,36.6281944 49.9983333,36.4695833 C50.0279167,35.9406944 49.6541667,35.4751389 49.1319444,35.3891667 C42.33375,34.2686111 39.2756944,27.2931944 39.14875,26.9972222 C39.1415278,26.9802778 39.1338889,26.9633333 39.1254167,26.9469444 C38.7625,26.2109722 38.6822222,25.595 38.8851389,25.1161111 C39.2773611,24.1918056 40.7229167,23.7329167 41.6795833,23.4295833 C41.9472222,23.3445833 42.19875,23.2645833 42.4056944,23.1829167 C44.1004167,22.5136111 44.9506944,21.6916667 44.9327778,20.7397222 C44.9180556,19.9922222 44.3356944,19.3252778 43.4104167,18.9947222 L43.4075,18.9936111 C43.09625,18.8645833 42.7266667,18.7940278 42.3648611,18.7940278 C42.1175,18.7940278 41.7504167,18.8276389 41.4076389,18.9880556 C40.6015278,19.3658333 39.8770833,19.5711111 39.2523611,19.5990278 C38.8381944,19.5798611 38.5672222,19.4754167 38.4126389,19.3901389 C38.4322222,19.0458333 38.4543056,18.6911111 38.4776389,18.3205556 L38.4863889,18.1765278 C38.7006944,14.7793056 38.9668056,10.5506944 37.8565278,8.06138889 C34.5573611,0.664027778 27.5520833,0.0886111111 25.4836111,0.0886111111 Z M25.4836111,1.12513889 C27.3669444,1.12541667 33.8533333,1.63069444 36.9101389,8.48375 C37.9163889,10.7398611 37.6590278,14.8277778 37.4519444,18.1120833 C37.4190278,18.6327778 37.3872222,19.1376389 37.36125,19.6204167 L37.35,19.8275 L37.48875,19.9816667 C37.5443056,20.0440278 38.0677778,20.5906944 39.2311111,20.6358333 L39.2505556,20.6363889 L39.2695833,20.6358333 C40.03875,20.6068056 40.9056944,20.3684722 41.8472222,19.9270833 C41.9852778,19.8620833 42.1698611,19.8305556 42.3648611,19.8305556 C42.5876389,19.8305556 42.82375,19.8723611 43.01875,19.9544444 L43.0479167,19.9663889 C43.54125,20.1390278 43.8902778,20.4654167 43.8961111,20.7601389 C43.8990278,20.9276389 43.77375,21.5279167 42.0245833,22.21875 C41.8536111,22.2865278 41.6283333,22.3579167 41.3676389,22.4402778 C40.2294444,22.8020833 38.5097222,23.3472222 37.9308333,24.7104167 C37.6045833,25.4797222 37.6933333,26.38625 38.1955556,27.4052778 C38.4025,27.8875 41.6508333,35.2072222 48.9633333,36.4120833 C48.96125,36.4459722 48.9530556,36.4844444 48.9333333,36.5290278 C48.8091667,36.8211111 48.02125,37.8288889 43.1201389,38.5854167 C42.3527778,38.70375 42.1647222,39.5630556 41.9465278,40.5627778 C41.86875,40.9202778 41.7879167,41.2808333 41.6779167,41.6545833 C41.6447222,41.7675 41.6383333,41.7741667 41.5169444,41.7741667 C41.5002778,41.7741667 41.4815278,41.7741667 41.4597222,41.7741667 C41.2423611,41.7741667 40.9118056,41.7288889 40.5291667,41.6540278 C39.8344444,41.5181944 38.8818056,41.3516667 37.6656944,41.3516667 C36.9868056,41.3516667 36.2870833,41.4106944 35.5856944,41.5269444 C34.0858333,41.7766667 32.8655556,42.6397222 31.5731944,43.5526389 C29.8386111,44.7793056 28.0455556,46.0468056 25.3093056,46.0468056 C25.1905556,46.0468056 25.0734722,46.0429167 24.9565278,46.0373611 L24.9256944,46.0356944 L24.8945833,46.0386111 C24.8273611,46.0441667 24.7598611,46.0468056 24.6905556,46.0468056 C21.9548611,46.0468056 20.1611111,44.7793056 18.4266667,43.5530556 C17.1348611,42.6397222 15.9143056,41.7766667 14.4147222,41.5269444 C13.7131944,41.4106944 13.0136111,41.3516667 12.3348611,41.3516667 C11.1188889,41.3516667 10.16625,41.5369444 9.47097222,41.6730556 C9.08861111,41.7481944 8.75763889,41.8123611 8.54069444,41.8123611 C8.36347222,41.8123611 8.35986111,41.8020833 8.32236111,41.6740278 C8.2125,41.3001389 8.13194444,40.9298611 8.05388889,40.5727778 C7.83555556,39.5729167 7.64666667,38.7086111 6.88027778,38.5904167 C1.97861111,37.8334722 1.19138889,36.8231944 1.06680556,36.5319444 C1.04708333,36.4866667 1.03888889,36.4472222 1.03708333,36.4127778 C8.34902778,35.2081944 11.5975,27.8893056 11.8043056,27.4058333 C12.3065278,26.38625 12.3958333,25.4802778 12.0694444,24.7113889 C11.4909722,23.3477778 9.77111111,22.8020833 8.63263889,22.4402778 C8.37194444,22.3580556 8.14652778,22.2865278 7.97569444,22.21875 C6.49763889,21.6351389 6.04375,21.0472222 6.11166667,20.6908333 C6.19,20.2798611 6.90208333,19.8620833 7.52347222,19.8620833 C7.66333333,19.8620833 7.78541667,19.8844444 7.87611111,19.9270833 C8.88569444,20.3995833 9.80777778,20.64 10.6154167,20.64 C11.8863889,20.64 12.4523611,20.0484722 12.5123611,19.9813889 L12.6501389,19.8275 L12.6388889,19.6211111 C12.6130556,19.1391667 12.5813889,18.6345833 12.5483333,18.1141667 C12.3415278,14.8298611 12.0843056,10.7447222 13.0905556,8.48819444 C16.1355556,1.66027778 22.5901389,1.13416667 24.4958333,1.13416667 C24.5427778,1.13416667 25.3709722,1.12597222 25.3709722,1.12597222 C25.4066667,1.12541667 25.44375,1.12513889 25.4836111,1.12513889 Z" id="Fill-3" fill="#25B7C4" mask="url(#mask-2)"></path>
        </g>
    </g>
</svg>