<?xml version="1.0" encoding="UTF-8"?>
<svg width="50px" height="50px" viewBox="0 0 50 50" version="1.1" xmlns="http://www.w3.org/2000/svg" xmlns:xlink="http://www.w3.org/1999/xlink">
    <!-- Generator: Sketch 49.1 (51147) - http://www.bohemiancoding.com/sketch -->
    <title>stackoverflow</title>
    <desc>Created with Sketch.</desc>
    <defs></defs>
    <g id="stackoverflow" stroke="none" stroke-width="1" fill="none" fill-rule="evenodd">
        <g id="so-icon" transform="translate(4.000000, 0.000000)" fill="#25B7C4" fill-rule="nonzero">
            <polygon id="Shape" points="35.4545455 45.3409091 35.4545455 32.1590909 39.8295455 32.1590909 39.8295455 49.7159091 0.340909091 49.7159091 0.340909091 32.1590909 4.71590909 32.1590909 4.71590909 45.3409091"></polygon>
            <path d="M9.54545455,30.9090909 L31.0227273,35.3977273 L31.9318182,31.0795455 L10.4545455,26.5909091 L9.54545455,30.9090909 Z M12.3863636,20.6818182 L32.2727273,29.9431818 L34.0909091,25.9659091 L14.2045455,16.6477273 L12.3863636,20.6818182 Z M17.8977273,10.9090909 L34.7727273,24.9431818 L37.5568182,21.5909091 L20.6818182,7.55681818 L17.8977273,10.9090909 Z M28.8068182,0.511363636 L25.2840909,3.125 L38.3522727,20.7386364 L41.875,18.125 L28.8068182,0.511363636 Z M9.09090909,40.9090909 L31.0227273,40.9090909 L31.0227273,36.5340909 L9.09090909,36.5340909 L9.09090909,40.9090909 Z" id="Shape"></path>
        </g>
    </g>
</svg>