<?xml version="1.0" encoding="UTF-8"?>
<svg width="50px" height="52px" viewBox="0 0 50 52" version="1.1" xmlns="http://www.w3.org/2000/svg" xmlns:xlink="http://www.w3.org/1999/xlink">
    <!-- Generator: Sketch 49.2 (51160) - http://www.bohemiancoding.com/sketch -->
    <title>statiokit</title>
    <desc>Created with Sketch.</desc>
    <defs></defs>
    <g id="statiokit" stroke="none" stroke-width="1" fill="none" fill-rule="evenodd">
        <g id="beaker-2" transform="translate(14.000000, 10.000000)" fill="#25B7C4" fill-rule="nonzero">
            <path d="M22.2709091,27.7068972 C22.2709091,28.9653557 21.2475889,29.9893281 19.988834,29.9893281 L2.29369565,29.9893281 C1.03405138,29.9893281 0.0109090909,28.9653557 0.0109090909,27.7068972 C0.0109090909,27.5848814 0.0334980237,27.4636364 0.0769565217,27.3498024 L6.20614625,11.286996 C6.20828063,11.2615613 6.21195652,11.2360079 6.21509881,11.2109289 L6.21509881,2.00679842 L5.49088933,2.00679842 C4.93648221,2.00679842 4.48790514,1.55750988 4.48790514,1.00333992 C4.48796443,0.449288538 4.9365415,0 5.49094862,0 L7.218083,0 C7.77249012,0 8.22189723,0.449288538 8.22189723,1.00333992 L8.22189723,11.288419 C8.22189723,11.3462846 8.21685771,11.4033794 8.20719368,11.4602964 C8.20719368,11.5827866 8.17772727,11.7474901 8.1336166,11.8612055 L4.44171937,21.5360277 L17.7537154,21.5360277 L13.9395652,11.8719368 C13.8982411,11.7678261 13.8750593,11.6578458 13.8701383,11.5465613 L13.8617194,11.4859684 C13.8575692,11.4463636 13.8554348,11.4069368 13.8554348,11.3675099 L13.8554348,1.00333992 C13.8554348,0.449288538 14.3039526,0 14.858419,0 L16.6309091,0 C17.1853162,0 17.633834,0.449288538 17.633834,1.00333992 C17.633834,1.55756917 17.1853162,2.00679842 16.6309091,2.00679842 L15.8609881,2.00679842 L15.8609881,11.2769763 L22.2004743,27.3385375 C22.2470751,27.4563439 22.2709091,27.5807312 22.2709091,27.7068972 Z M9.19719368,19.3004941 C9.19719368,18.8855929 9.53413043,18.5481225 9.94944664,18.5481225 C10.3645257,18.5481225 10.7021739,18.8852964 10.7021739,19.3004941 C10.7021739,19.7150395 10.3645257,20.0528656 9.94944664,20.0528656 C9.53413043,20.0529249 9.19719368,19.7150395 9.19719368,19.3004941 Z M9.69818182,19.3004941 C9.69818182,19.4385771 9.81083004,19.5511067 9.94909091,19.5511067 C10.0871739,19.5511067 10.1998221,19.4386364 10.1998221,19.3004941 C10.1998221,19.1621146 10.0871739,19.0496443 9.94909091,19.0496443 C9.81083004,19.0496443 9.69818182,19.1621146 9.69818182,19.3004941 Z M13.0844466,18.5481225 C13.0844466,18.1332213 13.421917,17.7953953 13.8371739,17.7953953 C14.2521344,17.7953953 14.589249,18.1328656 14.589249,18.5481225 C14.589249,18.9623715 14.2521344,19.3004941 13.8371739,19.3004941 C13.421917,19.3004941 13.0844466,18.963083 13.0844466,18.5481225 Z M13.5859684,18.5481225 C13.5859684,18.6862055 13.6984387,18.7983794 13.8368182,18.7983794 C13.9749012,18.7983794 14.0874308,18.6862055 14.0874308,18.5481225 C14.0874308,18.4093281 13.9749605,18.2972727 13.8368182,18.2972727 C13.6984387,18.2972134 13.5859684,18.4100395 13.5859684,18.5481225 Z M10.9935771,16.0400395 C10.9935771,15.4635178 11.462668,14.994664 12.0394269,14.994664 C12.6152372,14.994664 13.0844466,15.4635178 13.0844466,16.0400395 C13.0844466,16.6157905 12.6152372,17.085415 12.0394269,17.085415 C11.4623123,17.085415 10.9935771,16.616502 10.9935771,16.0400395 Z M11.4952174,16.0400395 C11.4952174,16.3396838 11.739249,16.5835375 12.0394269,16.5835375 C12.3387154,16.5835375 12.5833399,16.3396838 12.5833399,16.0400395 C12.5833399,15.7400395 12.3387154,15.4957708 12.0394269,15.4957708 C11.739249,15.4957708 11.4952174,15.7400395 11.4952174,16.0400395 Z" id="Shape"></path>
        </g>
        <circle id="Oval-2" stroke="#25B7C4" stroke-width="2" cx="25" cy="25" r="24"></circle>
    </g>
</svg>