<?xml version="1.0" encoding="UTF-8"?>
<svg width="50px" height="50px" viewBox="0 0 50 50" version="1.1" xmlns="http://www.w3.org/2000/svg" xmlns:xlink="http://www.w3.org/1999/xlink">
    <!-- Generator: Sketch 49.2 (51160) - http://www.bohemiancoding.com/sketch -->
    <title>statio</title>
    <desc>Created with Sketch.</desc>
    <defs></defs>
    <g id="statio" stroke="none" stroke-width="1" fill="none" fill-rule="evenodd">
        <g id="beaker-2" transform="translate(6.000000, 0.000000)" fill="#25B7C4" fill-rule="nonzero">
            <path d="M37.1181818,46.1781621 C37.1181818,48.2755929 35.4126482,49.9822134 33.3147233,49.9822134 L3.82282609,49.9822134 C1.72341897,49.9822134 0.0181818182,48.2755929 0.0181818182,46.1781621 C0.0181818182,45.9748024 0.0558300395,45.7727273 0.12826087,45.583004 L10.3435771,18.8116601 C10.3471344,18.7692688 10.3532609,18.7266798 10.358498,18.6848814 L10.358498,3.34466403 L9.15148221,3.34466403 C8.22747036,3.34466403 7.4798419,2.5958498 7.4798419,1.6722332 C7.47994071,0.748814229 8.22756917,0 9.15158103,0 L12.0301383,0 C12.9541502,0 13.7031621,0.748814229 13.7031621,1.6722332 L13.7031621,18.8140316 C13.7031621,18.9104743 13.6947628,19.0056324 13.6786561,19.1004941 C13.6786561,19.3046443 13.6295455,19.5791502 13.5560277,19.7686759 L7.40286561,35.8933794 L29.5895257,35.8933794 L23.2326087,19.7865613 C23.1637352,19.6130435 23.1250988,19.4297431 23.1168972,19.2442688 L23.1028656,19.1432806 C23.0959486,19.0772727 23.0923913,19.0115613 23.0923913,18.9458498 L23.0923913,1.6722332 C23.0923913,0.748814229 23.8399209,0 24.7640316,0 L27.7181818,0 C28.6421937,0 29.3897233,0.748814229 29.3897233,1.6722332 C29.3897233,2.59594862 28.6421937,3.34466403 27.7181818,3.34466403 L26.4349802,3.34466403 L26.4349802,18.7949605 L37.0007905,45.5642292 C37.0784585,45.7605731 37.1181818,45.9678854 37.1181818,46.1781621 Z M15.3286561,32.1674901 C15.3286561,31.4759881 15.8902174,30.9135375 16.5824111,30.9135375 C17.2742095,30.9135375 17.8369565,31.4754941 17.8369565,32.1674901 C17.8369565,32.8583992 17.2742095,33.4214427 16.5824111,33.4214427 C15.8902174,33.4215415 15.3286561,32.8583992 15.3286561,32.1674901 Z M16.1636364,32.1674901 C16.1636364,32.3976285 16.3513834,32.5851779 16.5818182,32.5851779 C16.8119565,32.5851779 16.9997036,32.3977273 16.9997036,32.1674901 C16.9997036,31.9368577 16.8119565,31.7494071 16.5818182,31.7494071 C16.3513834,31.7494071 16.1636364,31.9368577 16.1636364,32.1674901 Z M21.8074111,30.9135375 C21.8074111,30.2220356 22.3698617,29.6589921 23.0619565,29.6589921 C23.7535573,29.6589921 24.315415,30.2214427 24.315415,30.9135375 C24.315415,31.6039526 23.7535573,32.1674901 23.0619565,32.1674901 C22.3698617,32.1674901 21.8074111,31.6051383 21.8074111,30.9135375 Z M22.6432806,30.9135375 C22.6432806,31.1436759 22.8307312,31.3306324 23.0613636,31.3306324 C23.291502,31.3306324 23.4790514,31.1436759 23.4790514,30.9135375 C23.4790514,30.6822134 23.2916008,30.4954545 23.0613636,30.4954545 C22.8307312,30.4953557 22.6432806,30.6833992 22.6432806,30.9135375 Z M18.3226285,26.7333992 C18.3226285,25.7725296 19.1044466,24.9911067 20.0657115,24.9911067 C21.0253953,24.9911067 21.8074111,25.7725296 21.8074111,26.7333992 C21.8074111,27.6929842 21.0253953,28.4756917 20.0657115,28.4756917 C19.1038538,28.4756917 18.3226285,27.69417 18.3226285,26.7333992 Z M19.1586957,26.7333992 C19.1586957,27.2328063 19.565415,27.6392292 20.0657115,27.6392292 C20.5645257,27.6392292 20.9722332,27.2328063 20.9722332,26.7333992 C20.9722332,26.2333992 20.5645257,25.8262846 20.0657115,25.8262846 C19.565415,25.8262846 19.1586957,26.2333992 19.1586957,26.7333992 Z" id="Shape"></path>
        </g>
    </g>
</svg>