<?xml version="1.0" encoding="UTF-8"?>
<svg width="50px" height="50px" viewBox="0 0 50 50" version="1.1" xmlns="http://www.w3.org/2000/svg" xmlns:xlink="http://www.w3.org/1999/xlink">
    <!-- Generator: Sketch 49.3 (51167) - http://www.bohemiancoding.com/sketch -->
    <title>travis</title>
    <desc>Created with Sketch.</desc>
    <defs>
        <polygon id="path-1" points="0 0 49.9848902 0 49.9848902 49.57825 0 49.57825"></polygon>
    </defs>
    <g id="travis" stroke="none" stroke-width="1" fill="none" fill-rule="evenodd">
        <g id="TravisCI-Mascot-grey">
            <path d="M48.8759042,17.58175 C48.8624042,17.414 48.8439042,17.24625 48.8234042,17.0795 C48.8089042,16.96125 48.7901542,16.83775 48.7696542,16.7235 C48.3214042,16.34625 47.8119042,16.01075 47.2816542,15.70575 C46.7069042,15.37 46.1056542,15.06925 45.4919042,14.79 C44.8824042,14.5025 44.2564042,14.24225 43.6266542,13.98825 C43.3124042,13.86075 42.9954042,13.737 42.6771542,13.619 C42.3599042,13.49525 42.0396542,13.38 41.7184042,13.263 C42.3926542,13.37475 43.0599042,13.52775 43.7221542,13.69825 C44.1529042,13.80975 44.5814042,13.9345 45.0071542,14.0675 C41.9791542,6.15375 34.7396542,1 26.8354042,1 C18.9299042,1 11.6911542,6.15375 8.66390418,14.0675 C9.08965418,13.9345 9.51815418,13.80975 9.94815418,13.69825 C10.6114042,13.52775 11.2789042,13.37475 11.9526542,13.263 C11.6304042,13.38 11.3109042,13.49525 10.9926542,13.619 C10.6759042,13.737 10.3586542,13.86075 10.0431542,13.98825 C9.41340418,14.24225 8.78915418,14.5025 8.17815418,14.79 C7.56565418,15.06925 6.96390418,15.37 6.38915418,15.70575 C5.85890418,16.0105 5.34990418,16.34625 4.89990418,16.7235 C4.88115418,16.83775 4.86215418,16.96125 4.84740418,17.0795 C4.82715418,17.24625 4.80865418,17.414 4.79490418,17.58175 C4.76540418,17.919 4.75340418,18.2575 4.75065418,18.597 C4.74390418,19.27525 4.78965418,19.9535 4.87565418,20.6245 C4.96815418,21.2975 5.09165418,21.966 5.27440418,22.61225 C5.36440418,22.936 5.46640418,23.25525 5.58440418,23.56425 C5.64365418,23.7185 5.70815418,23.8705 5.77540418,24.01825 C5.80890418,24.09175 5.84390418,24.1645 5.87865418,24.23425 L5.92165418,24.31625 C5.97140418,24.3415 6.02365418,24.36725 6.07340418,24.39125 L6.37440418,24.535 C6.54215418,24.61125 6.77440418,24.7215 6.96640418,24.8075 C6.97715418,24.79825 6.98790418,24.78875 6.99715418,24.779 L6.43840418,22.65075 C6.55690418,22.61825 7.61790418,22.3445 9.44640418,21.9965 C9.29890418,21.9685 9.14990418,21.93625 9.00340418,21.90125 C8.58715418,21.79775 8.17615418,21.6715 7.77865418,21.51025 C7.58115418,21.427 7.38665418,21.336 7.20140418,21.2315 C7.01590418,21.125 6.83340418,21.0045 6.69215418,20.8445 C8.70115418,21.5 12.8521542,21.203 16.5419042,20.82175 C19.9166542,20.474 23.2991542,20.2485 26.6994042,20.24175 C30.0999042,20.2485 33.4836542,20.474 36.8569042,20.82175 C40.5484042,21.203 44.6994042,21.5 46.7081542,20.8445 C46.5671542,21.0045 46.3849042,21.12525 46.1994042,21.2315 C46.0141542,21.336 45.8196542,21.427 45.6224042,21.51025 C45.2244042,21.6715 44.8139042,21.79775 44.3976542,21.90125 C44.3359042,21.916 44.2739042,21.9295 44.2119042,21.94275 C46.2169042,22.31475 47.3841542,22.617 47.5089042,22.6505 L46.9744042,24.678 C47.0819042,24.6295 47.1904042,24.58275 47.2969042,24.5345 L47.5974042,24.39075 C47.6474042,24.3665 47.6981542,24.341 47.7491542,24.31575 L47.7906542,24.23375 C47.8271542,24.164 47.8621542,24.09125 47.8954042,24.01775 C47.9629042,23.87 48.0274042,23.718 48.0864042,23.56375 C48.2046542,23.25475 48.3069042,22.9355 48.3966542,22.61175 C48.5794042,21.9655 48.7029042,21.297 48.7954042,20.624 C48.8816542,19.95275 48.9269042,19.2745 48.9206542,18.5965 C48.9179042,18.2575 48.9056542,17.919 48.8759042,17.58175" id="Fill-1" fill="#25B7C4"></path>
            <path d="M29.12175,45.71425 C28.85575,45.75425 28.58975,45.788 28.32525,45.808 C28.15475,45.81625 27.97425,45.8335 27.8105,45.8335 L27.75,45.83475 C27.9555,45.3755 28.1115,45.01975 28.22975,44.75 C28.4705,45.02 28.77675,45.35425 29.12175,45.71425" id="Fill-2" fill="#25B7C4"></path>
            <path d="M29.69175,46.37725 C30.51775,47.19525 31.54125,47.66375 32.66775,47.747 C30.7755,48.5155 28.99225,48.812 27.6185,48.9045 C26.249,48.99625 24.8605,48.83475 23.5,48.46175 C23.614,48.44125 23.6975,48.42675 23.79825,48.4145 C23.91,48.401 26.34975,48.08275 27.4495,46.4475 L27.55275,46.44975 L27.82275,46.4475 C28.0055,46.4475 28.1715,46.4325 28.34625,46.42575 C28.76125,46.38975 29.167,46.3305 29.56575,46.25 C29.6075,46.29275 29.649,46.3345 29.69175,46.37725" id="Fill-3" fill="#25B7C4"></path>
            <path d="M32.19575,21.75 C32.1165,21.85325 32.028,21.96725 31.93375,22.08575 C31.4505,22.69675 30.78025,23.47825 29.98525,24.2425 C29.06125,24.214 28.11175,24.19825 27.13425,24.19825 C25.51925,24.19825 23.9705,24.241 22.5,24.3125 C24.57775,23.45025 27.074,22.608 29.77725,22.102 C30.56675,21.9525 31.375,21.833 32.19575,21.75" id="Fill-4" fill="#25B7C4"></path>
            <path d="M20.03325,22.75 C19.29175,23.271 18.454,23.936 17.64175,24.74275 C15.5615,24.951 13.74725,25.20325 12.25,25.44525 C14.5515,24.38725 17.17825,23.4135 20.03325,22.75" id="Fill-5" fill="#25B7C4"></path>
            <path d="M45.2205,27.043 L44.3745,32.96275 L40.3215,35.8015 L29.75075,34.59975 L28.1595,29.3595 C28.12175,29.232 28.01425,29.13825 27.8825,29.11675 C27.49075,29.0535 27.14425,29.02125 26.8555,29.02125 C26.5655,29.02125 26.22025,29.0535 25.82675,29.11675 C25.69625,29.13825 25.58925,29.232 25.55025,29.3595 L23.998,34.472 L13.48625,36.81125 L9.32075,33.89325 L8.5,27.25025 C8.67875,27.14925 8.86025,27.04875 9.044,26.948 C9.30175,26.8925 9.59175,26.83375 9.91275,26.772 L10.68625,33.04025 C10.69825,33.13825 10.75225,33.2255 10.83275,33.282 L13.69825,35.29 C13.75725,35.33 13.82725,35.3515 13.897,35.3515 C13.92225,35.3515 13.94675,35.349 13.9735,35.34325 L22.616,33.42025 C22.64575,33.4135 22.67525,33.403 22.702,33.38925 C22.7825,33.3465 22.84575,33.27275 22.8725,33.1825 L24.42875,28.058 C24.84625,27.9505 25.9155,27.70075 26.85525,27.70075 C27.7925,27.70075 28.86275,27.9505 29.2805,28.058 L30.83675,33.1825 C30.877,33.3155 30.99275,33.4105 31.13075,33.42675 L39.77325,34.4085 C39.857,34.41775 39.9425,34.396 40.01125,34.348 L42.8785,32.34175 C42.956,32.28675 43.0085,32.20025 43.02175,32.10525 L43.78725,26.75 C44.3625,26.861 44.84325,26.9615 45.2205,27.043" id="Fill-6" fill="#25B7C4"></path>
            <path d="M46.4075,23.28675 L45.6635,26.10925 C44.142,25.77375 40.7995,25.1155 36.25,24.6725 C37.7365,24.03875 39.25,23.24375 40.63275,22.25 C43.34,22.6325 45.32775,23.04225 46.4075,23.28675" id="Fill-7" fill="#25B7C4"></path>
            <path d="M28.8775,25.2672565 C28.46125,25.6045065 28.02225,25.9197565 27.56525,26.1952565 L26.041,27.1152565 C25.085,27.2317565 24.25525,27.4682565 24.20825,27.4820065 C24.18025,27.4897565 24.1535,27.5017565 24.129,27.5170065 C24.055,27.5597565 23.99875,27.6307565 23.97175,27.7155065 L22.4195,32.8305065 L14.12325,34.6755065 L11.51025,32.8452565 L10.75,26.6867565 C12.234,26.4142565 14.2185,26.0987565 16.6025,25.8317565 C16.347,26.1380065 16.099,26.4587565 15.86375,26.7955065 L14.4445,28.8327565 L16.511,27.4550065 C16.54175,27.4335065 17.85775,26.5677565 20.0105,25.5147565 C22.156,25.3537565 24.52375,25.2500065 27.0575,25.2500065 C27.67525,25.2497565 28.28125,25.2567565 28.8775,25.2672565 Z M15.96325,32.2045065 C16.5525,31.8860065 17.2185,31.9332565 18.26075,31.9347565 C18.3725,31.9375065 18.48775,31.9360065 18.60825,31.9335065 C18.71075,31.9322565 18.81375,31.9307565 18.92275,31.9280065 C19.99675,31.9175065 20.89,32.0195065 20.87425,30.3327565 C20.858,28.6462565 20.10875,27.2832565 19.03575,27.2940065 C17.9615,27.3032565 16.92225,28.6850065 16.9865,30.3705065 C17.004,30.8095065 17.0685,31.1262565 17.172,31.3547565 C16.23575,31.5892565 15.97775,32.1682565 15.96325,32.2045065 Z" id="Fill-8" fill="#25B7C4"></path>
            <path d="M43.11475,26.63925 L42.36675,31.87525 L39.732,33.72 L31.44675,32.7785 L29.901,27.68775 C29.866,27.575 29.7775,27.488 29.66475,27.45425 C29.6135,27.43925 28.58775,27.14675 27.5,27.0525 L27.69875,27.03925 C27.8705,27.027 30.72825,26.6765 34.1405,25.5 C37.91925,25.79025 41.005,26.255 43.11475,26.63925 Z M37.81975,31.4855 C37.80925,31.4455 37.5835,30.76725 36.58425,30.88625 C36.6995,30.6355 36.75075,30.29725 36.7145,29.83375 C36.5825,28.151 35.60375,26.81375 34.53075,26.851 C33.45775,26.889 32.77025,28.28375 32.8295,29.9705 C32.8885,31.65575 33.7895,31.644 34.8625,31.60625 C36.305,31.5795 37.09725,31.13625 37.81975,31.4855 Z" id="Fill-9" fill="#25B7C4"></path>
            <path d="M28.8775,25.2672565 C28.46125,25.6045065 28.02225,25.9197565 27.56525,26.1952565 L26.041,27.1152565 C25.085,27.2317565 24.25525,27.4682565 24.20825,27.4820065 C24.18025,27.4897565 24.1535,27.5017565 24.129,27.5170065 C24.055,27.5597565 23.99875,27.6307565 23.97175,27.7155065 L22.4195,32.8305065 L14.12325,34.6755065 L11.51025,32.8452565 L10.75,26.6867565 C12.234,26.4142565 14.2185,26.0987565 16.6025,25.8317565 C16.347,26.1380065 16.099,26.4587565 15.86375,26.7955065 L14.4445,28.8327565 L16.511,27.4550065 C16.54175,27.4335065 17.85775,26.5677565 20.0105,25.5147565 C22.156,25.3537565 24.52375,25.2500065 27.0575,25.2500065 C27.67525,25.2497565 28.28125,25.2567565 28.8775,25.2672565 Z M15.96325,32.2045065 C16.5525,31.8860065 17.2185,31.9332565 18.26075,31.9347565 C18.3725,31.9375065 18.48775,31.9360065 18.60825,31.9335065 C18.71075,31.9322565 18.81375,31.9307565 18.92275,31.9280065 C19.99675,31.9175065 20.89,32.0195065 20.87425,30.3327565 C20.858,28.6462565 20.10875,27.2832565 19.03575,27.2940065 C17.9615,27.3032565 16.92225,28.6850065 16.9865,30.3705065 C17.004,30.8095065 17.0685,31.1262565 17.172,31.3547565 C16.23575,31.5892565 15.97775,32.1682565 15.96325,32.2045065 Z" id="Fill-10" fill="#25B7C4"></path>
            <path d="M43.11475,26.63925 L42.36675,31.87525 L39.732,33.72 L31.44675,32.7785 L29.901,27.68775 C29.866,27.575 29.7775,27.488 29.66475,27.45425 C29.6135,27.43925 28.58775,27.14675 27.5,27.0525 L27.69875,27.03925 C27.8705,27.027 30.72825,26.6765 34.1405,25.5 C37.91925,25.79025 41.005,26.255 43.11475,26.63925 Z M37.81975,31.4855 C37.80925,31.4455 37.5835,30.76725 36.58425,30.88625 C36.6995,30.6355 36.75075,30.29725 36.7145,29.83375 C36.5825,28.151 35.60375,26.81375 34.53075,26.851 C33.45775,26.889 32.77025,28.28375 32.8295,29.9705 C32.8885,31.65575 33.7895,31.644 34.8625,31.60625 C36.305,31.5795 37.09725,31.13625 37.81975,31.4855 Z" id="Fill-11" fill="#25B7C4"></path>
            <path d="M10.1128333,35.25825 C10.1625833,35.43425 10.2148333,35.61 10.2688333,35.78325 C9.73408331,35.94025 8.64508331,36.09075 8.15258331,36.00475 C7.74433331,35.5935 6.98283331,32.76325 6.81633331,31.26025 C6.68058331,30.0425 6.77583331,29.77925 6.89958331,29.67675 C7.04333331,29.556 7.58158331,29.24975 8.04783331,29 L8.67758331,34.11225 C8.68958331,34.2105 8.74183331,34.2975 8.82408331,34.354 L10.1128333,35.25825" id="Fill-12" fill="#25B7C4"></path>
            <path d="M30.27875,35.3835 L30.241,35.70975 C30.241,35.70975 29.09575,36.77175 27.252,37.0095 C25.40825,37.247 23.95925,36.114 23.95925,36.114 C24.01975,36.311 24.10575,36.75575 24.52325,37.1355 C24.032,37.07675 23.5015,37.03725 22.945,37.03725 C22.744,37.03725 22.541,37.043 22.34475,37.0525 C21.21,37.11175 19.61375,38.8275 18.49125,40.556 C17.9405,40.73025 16.219,41.27675 14.22625,41.86525 C12.36625,39.288 11.45175,36.65475 11.359,36.38225 L11.36025,36.38075 C11.32275,36.276 11.285,36.171 11.25,36.06375 L11.72825,36.39825 L11.72825,36.3995 L12.90975,37.22675 L13.30475,37.502 C13.36375,37.54375 13.4335,37.56525 13.50325,37.56525 C13.52875,37.56525 13.55425,37.5625 13.5795,37.5575 L24.43825,35.14 C24.56,35.11325 24.6585,35.02175 24.6945,34.9025 L26.243,29.805 C26.51025,29.76875 26.745,29.75 26.9465,29.75 C27.14675,29.75 27.383,29.76875 27.65025,29.805 L29.24375,35.05425 C29.28425,35.18725 29.39975,35.284 29.5365,35.2985 L30.27875,35.3835" id="Fill-13" fill="#25B7C4"></path>
            <path d="M42.7405,34.996 L43.091,34.75 C43.033,34.99325 42.97,35.235 42.90425,35.474 C42.417,37.036 41.84175,38.4175 41.203,39.638 C41.06175,39.64775 40.91275,39.65325 40.753,39.65325 C40.26,39.65325 39.7565,39.6115 39.19925,39.5605 C38.23225,39.47175 36.6975,39.296 36.21275,39.23975 C35.79525,38.90675 34.3665,37.7715 33.17775,36.836 C33.131,36.79825 33.09075,36.76325 33.0515,36.731 C32.84225,36.554 32.60425,36.35275 32.12225,36.35275 C31.6845,36.35275 31.04525,36.51225 29.5,36.97975 C30.303,36.3795 30.30825,35.60475 30.30825,35.60475 L30.346,35.2785 L40.533,36.43575 C40.616,36.44525 40.702,36.42375 40.77175,36.3755 L41.79525,35.6585 L42.7405,34.996" id="Fill-14" fill="#25B7C4"></path>
            <path d="M35.27525,13.5 C35.30625,14.40625 35.2835,16.0485 34.8615,17.58625 C34.8445,17.6455 34.847,17.706 34.8615,17.76225 C34.3245,17.70575 33.78725,17.6575 33.25,17.6145 C33.853,16.351 33.9845,15.0055 34.013,14.5315 C34.476,14.20225 34.937,13.8075 35.27525,13.5" id="Fill-15" fill="#25B7C4"></path>
            <path d="M19.7711876,14.5315 C19.7991876,15.0055 19.9306876,16.34825 20.5326876,17.61075 C19.9954376,17.6535 19.4584376,17.70325 18.9224376,17.75975 C18.9369376,17.7045 18.9386876,17.6455 18.9224376,17.58625 C18.5009376,16.0515 18.4794376,14.40775 18.5089376,13.5 C18.8471876,13.80775 19.3064376,14.2025 19.7711876,14.5315" id="Fill-16" fill="#25B7C4"></path>
            <path d="M34.6215487,28.9155197 C34.9237987,28.9087697 35.1652987,28.6590197 35.1600487,28.3567697 C35.1547987,28.0532697 34.9050487,27.8115197 34.6012987,27.8185197 C34.2980487,27.8235197 34.0575487,28.0735197 34.0632987,28.3770197 C34.0685487,28.6790197 34.3182987,28.9210197 34.6215487,28.9155197 Z M37.9935487,31.3850197 C37.2710487,31.0360197 36.4787987,31.4792697 35.0365487,31.5060197 C33.9635487,31.5437697 33.0625487,31.5555197 33.0035487,29.8702697 C32.9442987,28.1835197 33.6317987,26.7887697 34.7047987,26.7507697 C35.7777987,26.7132697 36.7565487,28.0507697 36.8885487,29.7335197 C36.9247987,30.1970197 36.8735487,30.5352697 36.7582987,30.7860197 C37.7572987,30.6667697 37.9830487,31.3447697 37.9935487,31.3850197 Z" id="Fill-17" fill="#25B7C4"></path>
            <path d="M34.5383423,27.7500923 C34.8413423,27.7445923 35.0913423,27.9855923 35.0968423,28.2883423 C35.1023423,28.5913423 34.8613423,28.8413423 34.5585923,28.8468423 C34.2555923,28.8523423 34.0055923,28.6113423 34.0000923,28.3085923 C33.9945923,28.0055923 34.2355923,27.7555923 34.5383423,27.7500923" id="Fill-18" fill="#25B7C4"></path>
            <path d="M19.2525,29.4068102 C19.55475,29.3990602 19.79375,29.1460602 19.78575,28.8440602 C19.7775,28.5405602 19.5255,28.3015602 19.22325,28.3098102 C18.9195,28.3175602 18.68025,28.5700602 18.6885,28.8723102 C18.6965,29.1760602 18.949,29.4150602 19.2525,29.4068102 Z M20.911,30.2890602 C20.92675,31.9758102 20.03375,31.8738102 18.9595,31.8843102 C18.85075,31.8870602 18.7475,31.8883102 18.645,31.8898102 C18.5245,31.8925602 18.409,31.8938102 18.2975,31.8910602 C17.2555,31.8898102 16.58925,31.8425602 16,32.1608102 C16.0145,32.1245602 16.2725,31.5455602 17.20875,31.3108102 C17.10525,31.0823102 17.0405,30.7655602 17.02325,30.3265602 C16.959,28.6413102 17.99825,27.2593102 19.0725,27.2500602 C20.1455,27.2395602 20.89475,28.6028102 20.911,30.2890602 Z" id="Fill-19" fill="#25B7C4"></path>
            <path d="M19.0346831,28.2501831 C19.3376831,28.2424331 19.5896831,28.4816831 19.5974331,28.7846831 C19.6051831,29.0876831 19.3659331,29.3396831 19.0629331,29.3474331 C18.7599331,29.3551831 18.5079331,29.1159331 18.5001831,28.8129331 C18.4924331,28.5099331 18.7316831,28.2579331 19.0346831,28.2501831" id="Fill-20" fill="#25B7C4"></path>
            <path d="M12.7185,18.7185 C12.7185,18.7185 12.88525,16.5455 13.226,15.71275 C13.4015,15.2835 14.475,15.01025 15.295,14.815 C16.1145,14.62 17.422,14.2295 17.676,15.381 C17.92975,16.5325 18.33925,17.37175 18.6125,17.7425 L18.2615,13 L12.621,14.366 L12.25,18.5625 L12.42575,18.89425 L12.7185,18.7185" id="Fill-21" fill="#25B7C4"></path>
            <path d="M41.1445,18.7185 C41.1445,18.7185 40.978,16.5455 40.63725,15.71275 C40.4615,15.2835 39.388,15.01025 38.5685,14.815 C37.7485,14.62 36.441,14.2295 36.187,15.381 C35.93375,16.5325 35.5235,17.37175 35.25,17.7425 L35.60175,13 L41.24225,14.366 L41.613,18.5625 L41.43725,18.89425 L41.1445,18.7185" id="Fill-22" fill="#25B7C4"></path>
            <path d="M33.13875,4.5 C33.13875,4.5 32.98925,15.8725 30.33275,15.8725 C27.67625,15.8725 27.14525,15.8725 27.14525,15.8725 L26.614,15.8725 C26.614,15.8725 26.0825,15.8725 23.426,15.8725 C20.7695,15.8725 20.555,4.505 20.555,4.505 L19.25,8.3645 L19.27125,13.66025 L20.198,14.397 L20.61925,16.671 L21.2085,17.99775 L32.579,18.01875 L33.10525,17.071 L33.5475,15.471 L33.611,14.46025 L34.86675,10.875 L33.13875,4.5" id="Fill-23" fill="#25B7C4"></path>
            <path d="M41.53225,15.25 C41.53225,15.25 42.079,19.173 43.52575,19.8805 C44.97275,20.58775 43.52575,19.8805 43.52575,19.8805 L41.5,19.2695 L41.53225,15.25" id="Fill-24" fill="#25B7C4"></path>
            <path d="M12.1368611,15.25 C12.1368611,15.25 11.5901111,19.173 10.1431111,19.8805 C8.69611111,20.58775 10.1431111,19.8805 10.1431111,19.8805 L12.1691111,19.2695 L12.1368611,15.25" id="Fill-25" fill="#25B7C4"></path>
            <path d="M18.314,17.828 C18.30425,17.80925 18.2965,17.78775 18.2895,17.76625 C17.79575,15.9695 17.81725,14.0855 17.8615,13.2165 L12.733,14.67475 C12.388,16.92025 12.549,18.5705 12.58375,18.874 C13.0095,18.7585 13.4365,18.65225 13.8665,18.553 C14.5755,18.396 15.28975,18.2645 16.0055,18.1435 C16.72275,18.024 17.44225,17.93275 18.162,17.8455 C18.21325,17.83875 18.263,17.835 18.314,17.828 Z M20.54725,17.612 C19.94525,16.3495 19.81375,15.0065 19.78575,14.53275 C19.32125,14.20375 18.86175,13.809 18.5235,13.5015 C18.49375,14.40925 18.5155,16.053 18.937,17.58775 C18.95325,17.647 18.9515,17.706 18.937,17.76125 C19.47325,17.7045 20.01,17.655 20.54725,17.612 Z M34.74225,17.5875 C35.16425,16.05 35.187,14.4075 35.156,13.50125 C34.81775,13.80875 34.35675,14.2035 33.89375,14.5325 C33.86525,15.0065 33.73375,16.352 33.13075,17.6155 C33.668,17.65875 34.20525,17.707 34.74225,17.76325 C34.72775,17.70725 34.72525,17.647 34.74225,17.5875 Z M41.0945,18.87525 C41.1295,18.5735 41.29175,16.923 40.94675,14.675 L35.81675,13.21675 C35.86275,14.0855 35.883,15.96975 35.39,17.7665 C35.3835,17.788 35.3755,17.8095 35.36475,17.831 C35.4155,17.83625 35.46675,17.84025 35.51625,17.847 C36.9585,18.01225 38.394,18.243 39.8135,18.5545 C40.2415,18.654 40.67,18.76025 41.0945,18.87525 Z M41.91875,19.11725 C42.6075,19.34275 43.30025,19.58175 43.92775,19.9485 C43.592,19.8155 43.2455,19.72025 42.89625,19.63425 C42.5485,19.5455 42.198,19.4705 41.846,19.40325 C41.141,19.2705 40.4335,19.15775 39.7215,19.0715 C39.01125,18.979 38.29975,18.901 37.585,18.8405 C36.8705,18.78025 36.15775,18.71975 35.44175,18.678 C32.58025,18.502 29.71075,18.458 26.83925,18.455 C23.9685,18.4565 21.09875,18.51025 18.237,18.67925 C17.5215,18.72075 16.80825,18.7815 16.094,18.842 C15.37975,18.90225 14.6665,18.979 13.9575,19.07275 C13.24575,19.159 12.538,19.27175 11.833,19.4045 C11.48125,19.4705 11.1305,19.547 10.7815,19.63425 C10.43375,19.72025 10.08575,19.8155 9.75,19.9485 C10.37725,19.582 11.07,19.34175 11.76025,19.11575 C11.81825,19.097 11.877,19.081 11.936,19.06225 C11.93225,19.0475 11.928,19.034 11.92525,19.018 C11.91325,18.93875 11.658,17.05325 12.1025,14.35675 C12.124,14.22775 12.2165,14.123 12.343,14.088 L13.07225,13.88025 C13.23075,8.224 15.56025,5.56375 15.633,5.48175 C13.5515,8.831 13.5705,12.80325 13.6065,13.72825 L18.1385,12.44025 C18.1425,12.439 18.145,12.439 18.149,12.43775 C18.168,12.43375 18.18675,12.431 18.2055,12.42975 C18.21075,12.42975 18.21775,12.42825 18.22425,12.42825 C18.24725,12.427 18.273,12.42975 18.2985,12.435 C18.30225,12.435 18.30625,12.43775 18.31175,12.439 C18.3305,12.443 18.348,12.4495 18.36775,12.45775 C18.376,12.46175 18.38125,12.466 18.38925,12.47 C18.40375,12.47825 18.419,12.4875 18.4335,12.498 C18.4375,12.50075 18.442,12.502 18.44575,12.50625 C18.4485,12.509 18.451,12.51175 18.45375,12.51425 C18.45775,12.51825 18.463,12.521 18.46725,12.52525 C18.47025,12.52925 18.59075,12.6485 18.78275,12.8275 C18.73725,11.33425 18.80825,7.0505 20.84825,3.5 C20.80525,3.6245 19.18675,8.357 19.7445,13.66125 C19.9255,13.80625 20.116,13.9485 20.30175,14.0735 C20.3915,14.13525 20.44675,14.23725 20.448,14.346 C20.4495,14.3635 20.48825,16.05425 21.235,17.4925 C21.2455,17.514 21.2535,17.53675 21.2605,17.5595 C23.11775,17.43325 24.98,17.38225 26.8385,17.381 C28.6975,17.38225 30.5585,17.436 32.41525,17.56375 C32.422,17.5395 32.43025,17.5155 32.4425,17.4925 C33.189,16.05425 33.228,14.3635 33.228,14.346 C33.2305,14.237 33.28575,14.13525 33.37575,14.0735 C33.561,13.9485 33.749,13.80625 33.93175,13.66125 C34.49025,8.357 32.87175,3.6245 32.829,3.5 C34.86725,7.05025 34.94,11.334 34.8945,12.8275 C35.085,12.64875 35.206,12.5295 35.20975,12.52525 C35.21375,12.52125 35.2195,12.5185 35.223,12.51425 C35.226,12.51175 35.2275,12.509 35.23125,12.50625 C35.23525,12.50225 35.2395,12.50075 35.2435,12.498 C35.2585,12.4875 35.27325,12.47825 35.28775,12.4685 C35.29475,12.466 35.30125,12.46175 35.308,12.45775 C35.32825,12.4495 35.34675,12.443 35.367,12.43775 C35.371,12.43775 35.37525,12.435 35.37925,12.435 C35.40325,12.42975 35.42925,12.427 35.45325,12.42825 C35.46,12.42825 35.4655,12.42975 35.47075,12.42975 C35.4895,12.431 35.50975,12.43375 35.5285,12.43775 C35.5315,12.43925 35.5355,12.43925 35.539,12.44025 L40.07125,13.72825 C40.10775,12.80325 40.1265,8.83075 38.04525,5.48175 C38.1175,5.56375 40.4475,8.224 40.6045,13.88025 L41.335,14.088 C41.45975,14.123 41.55375,14.22775 41.5755,14.35675 C42.01975,17.05325 41.7635,18.93875 41.7525,19.018 C41.75,19.03425 41.746,19.049 41.742,19.0635 C41.80175,19.081 41.8595,19.09825 41.91875,19.11725 Z" id="Fill-26" fill="#25B7C4"></path>
            <polyline id="Fill-27" fill="#25B7C4" points="32.367 4.75 32.367 9.00625 29.34975 9.00625 29.34975 7.763 28.67 7.763 28.67 13.508 29.697 13.508 29.697 16.72075 24.41975 16.72075 24.41975 13.508 25.44275 13.508 25.44275 7.763 24.765 7.763 24.765 9.00625 21.75 9.00625 21.75 4.75 32.367 4.75"></polyline>
            <path d="M11.83375,21.67325 C11.83375,21.67325 4.05425,27.149 3.75,29.235 L4.33375,29.115 C4.33375,29.115 13.64975,22.94025 21.0345,22.18725 L21.20175,21.25 L11.83375,21.67325" id="Fill-28" fill="#25B7C4"></path>
            <path d="M23.87775,20.99325 L17.75,25.3395 L18.08125,25.60525 C18.331,25.40375 28.966,22.15575 28.966,22.15575 L31.20825,20.75 C29.70375,20.93725 23.87775,20.99325 23.87775,20.99325" id="Fill-29" fill="#25B7C4"></path>
            <path d="M29.24125,26.21275 C33.5925,26.21275 40.115,21.95125 40.115,21.95125 L38.0065,21.55 C37.90225,21.65425 34.6065,21.4345 34.6065,21.4345 L33.042,21 L29.30425,25.259 L29,25.998 C29.26875,25.88875 29.24125,26.21275 29.24125,26.21275" id="Fill-30" fill="#25B7C4"></path>
            <path d="M27.8585,42.91 L27.819,42.87375 C27.86625,42.82175 27.9145,42.76775 27.964,42.7155 C27.964,42.71675 27.964,42.71675 27.96525,42.71675 L27.96975,42.72075 C28.046,42.77575 28.12275,42.8335 28.19925,42.89125 L28.159,42.94625 L28.18375,42.97575 C28.035,42.86325 27.94575,42.79575 27.94575,42.79575 C27.94575,42.79575 27.91425,42.8375 27.8585,42.91 Z M10.99125,42.3285 C10.96125,42.31475 10.931,42.30075 10.901,42.287 C10.687,42.10225 10.512,41.95125 10.39775,41.853 L10.99125,42.3285 Z M43.55925,39.777 L42.215,40.1555 L36.00425,40.02125 L32.119,37 L27.423,38.175 L21.9915,37.705 L18.95,41.0285 L13.243,42.73325 L10.3935,41.84975 C10.30275,41.7715 10.25,41.72625 10.25,41.72625 L11.529,44.858 C11.529,44.858 14.426,47.964 16.04425,48.32925 C17.66225,48.6945 20.5855,48.303 22.778,47.9635 C24.97025,47.62425 26.719,46.84125 27.42375,45.56275 C28.12825,44.2835 28.23275,43.91825 28.23275,43.91825 C28.23275,43.91825 30.321,46.8675 32.12175,47.207 C33.9225,47.54625 39.273,45.719 39.273,45.719 C39.273,45.719 42.53575,44.83175 43.1095,43.7095 C43.68375,42.58725 45.19775,38.90725 45.19775,38.90725 L43.55925,39.777 Z" id="Fill-31" fill="#25B7C4"></path>
            <path d="M7.75,23.3675 C8.18975,23.26775 8.784,23.14075 9.51275,23 C9.065,23.30525 8.5355,23.6885 7.95725,24.14925 L7.75,23.3675" id="Fill-32" fill="#25B7C4"></path>
            <path d="M23.727,35 C23.727,35 23.85,35.79125 22.7425,36.12975 C21.6355,36.4685 14.622,38.55875 13.822,38.4455 C13.02225,38.33275 10.99225,36.977 10.99225,36.977 L10.5,35.226 L13.504,37.099 L23.727,35" id="Fill-33" fill="#25B7C4"></path>
            <path d="M30.001645,34.849 C30.001645,34.849 29.913145,35.6445 31.034395,35.93525 C32.155395,36.2255 39.253145,38.009 40.046895,37.86125 C40.840895,37.7135 42.810145,36.271 42.810145,36.271 L43.225895,34.5 L40.464645,36.147 L30.001645,34.849" id="Fill-34" fill="#25B7C4"></path>
            <path d="M7,33.5 C7,33.5 7.97175,35.44375 9.5415,34.77075 L10.66275,35.182 L10.55075,36.0045 L8.196,36.30325 L7.56075,35.92975 L7,33.5" id="Fill-35" fill="#25B7C4"></path>
            <path d="M43.66875,34.52275 C43.61475,34.71325 43.5585,35.34325 43.5,35.53075 C44.07875,35.70075 45.4955,35.66225 46.02875,35.569 C46.47075,35.124 47.29475,32.06075 47.475,30.43425 C47.62175,29.11625 47.2805,28.593 47.14675,28.48225 C46.99125,28.35175 46.40875,28.02025 45.904,27.75 L45.09175,33.152 C45.07875,33.25825 45.02225,33.3525 44.93325,33.4135 L43.66875,34.52275" id="Fill-36" fill="#25B7C4"></path>
            <g id="Group-41">
                <mask id="mask-2" fill="white">
                    <use xlink:href="#path-1"></use>
                </mask>
                <g id="Clip-38"></g>
                <path d="M46.964,32.5 C46.964,32.5 45.91225,34.6035 44.2135,33.87525 L43,34.32025 L43.12125,35.2105 L45.66975,35.53375 L46.3575,35.1295 L46.964,32.5" id="Fill-37" fill="#25B7C4" mask="url(#mask-2)"></path>
                <path d="M22.25,48.18975 C22.25,48.18975 28.0075,51.0925 34.5265,47.14275 L32.433,47 C32.433,47 27.865,48.808 24.2485,47.80875 L22.25,48.18975" id="Fill-39" fill="#25B7C4" mask="url(#mask-2)"></path>
                <path d="M9.43625,22.91225 C8.7075,23.05325 8.11325,23.18 7.6735,23.27975 L7.88075,24.0615 C8.459,23.6005 8.9885,23.2175 9.43625,22.91225 Z M10.39,35.75225 C10.3355,35.579 10.284,35.40275 10.23475,35.22675 L8.94425,34.32375 C8.8625,34.26675 8.81075,34.18 8.79775,34.0815 L8.16875,28.96925 C7.70275,29.219 7.1645,29.5255 7.02075,29.646 C6.8965,29.74825 6.802,30.011 6.93675,31.229 C7.10375,32.7315 7.86475,35.56225 8.27375,35.97375 C8.76575,36.0605 9.8555,35.90925 10.39,35.75225 Z M18.1025,22.203 C19.05875,21.935 20.04525,21.70075 21.05575,21.504 C19.60625,21.557 18.15575,21.62425 16.7075,21.706 C15.866,21.7525 15.02875,21.8095 14.19125,21.87275 C13.77175,21.905 13.355,21.9385 12.9395,21.984 C12.8205,21.9955 12.704,22.0085 12.585,22.024 C11.49275,22.6775 7.30325,25.3075 4.42725,28.74625 C7.222,26.804 12.09075,23.8855 18.1025,22.203 Z M17.56275,24.69025 C18.3755,23.884 19.214,23.21875 19.9545,22.6985 C17.10075,23.36125 14.47375,24.33425 12.1725,25.393 C13.66975,25.151 15.483,24.89875 17.56275,24.69025 Z M28.51625,21.40425 C27.93875,21.39525 27.3605,21.39 26.783,21.38875 L26.78175,21.38875 C25.93425,21.39 25.085,21.399 24.2345,21.416 L22.66725,22.15875 C22.666,22.16 22.657,22.164 22.64525,22.17075 C22.40975,22.28575 20.35175,23.324 18.4155,25.176 C20.15125,24.2635 22.702,23.0715 25.70375,22.14725 C26.603,21.87175 27.54525,21.61775 28.51625,21.40425 Z M27.56225,26.10125 C28.019,25.8255 28.45775,25.50975 28.8745,25.17325 C28.27775,25.163 27.67225,25.15525 27.055,25.15525 C24.52075,25.15525 22.1535,25.259 20.00775,25.4205 C17.85525,26.47275 16.539,27.3385 16.50825,27.3605 L14.44125,28.739 L15.861,26.70175 C16.09525,26.3635 16.34375,26.04275 16.6,25.7375 C14.216,26.004 12.23075,26.31975 10.7475,26.593 L11.507,32.751 L14.12025,34.58125 L22.41625,32.73675 L23.96925,27.62075 C23.99525,27.5365 24.052,27.4655 24.126,27.4225 C24.1505,27.40675 24.17625,27.39525 24.20475,27.3875 C24.25275,27.3745 25.08225,27.13775 26.03875,27.02125 L27.56225,26.10125 Z M28.40075,45.75925 C28.66475,45.7385 28.93,45.70475 29.19675,45.66475 C28.851,45.30525 28.54575,44.971 28.30475,44.7005 C28.187,44.971 28.03075,45.32675 27.82475,45.7852526 L27.8855,45.78525 C28.05,45.7855 28.23,45.7675 28.40075,45.75925 Z M32.75075,47.6245 C31.625,47.5415 30.60125,47.07325 29.775,46.25525 C29.73225,46.2115 29.691,46.1695 29.6495,46.12725 C29.25,46.2075 28.8445,46.267 28.42925,46.30325 C28.25475,46.30975 28.089,46.325 27.9065,46.325 L27.63575,46.32775 L27.5325,46.325 C26.4335,47.95975 23.99275,48.27825 23.88125,48.2925 C23.7805,48.304 23.69775,48.31825 23.5835,48.339 C24.944,48.71175 26.3325,48.8735 27.702,48.7815 C29.075,48.68975 30.85875,48.392 32.75075,47.6245 Z M31.854,22.10325 C31.94825,21.9855 32.03625,21.87175 32.115,21.76825 C31.29475,21.851 30.487,21.97025 29.6975,22.12025 C26.994,22.62625 24.49725,23.4675 22.42,24.3295 C23.89175,24.25825 25.4395,24.21575 27.055,24.21575 C28.032,24.21575 28.982,24.2325 29.906,24.25975 C30.70075,23.49575 31.37125,22.71425 31.854,22.10325 Z M39.323,21.87175 C39.3205,21.87025 39.318,21.86875 39.31525,21.86875 C38.49725,21.808 37.6795,21.75225 36.85875,21.706 C35.72,21.641 34.58075,21.58675 33.442,21.539 C33.37575,21.6375 33.2415,21.8315 33.0485,22.09525 C32.42875,22.934 31.199,24.47275 29.6225,25.7775 C31.854,25.3775 35.72475,24.3875 39.07325,22.05125 C39.15725,21.99175 39.24025,21.92975 39.323,21.87175 Z M43.0815,34.77 L42.7305,35.01575 L41.78575,35.6785 L40.762,36.3955 C40.69225,36.4435 40.60675,36.4655 40.5235,36.45625 L30.337,35.298 L29.5955,35.21375 C29.45825,35.198 29.343,35.10225 29.30275,34.9695 L27.7085,29.72 C27.442,29.68375 27.205,29.66525 27.006,29.66525 C26.80375,29.66525 26.56825,29.6835 26.30175,29.72 L24.75375,34.818 C24.7175,34.937 24.61925,35.02775 24.4975,35.0545 L13.63875,37.4725 C13.613,37.4775 13.58725,37.48 13.5625,37.48 C13.49275,37.48 13.42275,37.45925 13.363,37.41675 L12.9685,37.14225 L11.787,36.3155 L11.787,36.31275 L11.3095,35.979 C11.34325,36.0865 11.38175,36.1915 11.41975,36.296 L11.41825,36.2975 C11.51025,36.5705 12.42525,39.203 14.285,41.77975 C16.27675,41.19225 17.9995,40.646 18.54925,40.47125 C19.67125,38.742 21.2685,37.027 22.40375,36.96775 C22.599,36.9585 22.8025,36.9525 23.00425,36.9525 C23.5595,36.9525 24.09025,36.9925 24.58175,37.05075 C24.164,36.6715 24.0785,36.22625 24.01775,36.0295 C24.01775,36.0295 25.466,37.162 27.31025,36.9255 C29.15475,36.68725 30.3,35.6245 30.3,35.6245 C30.3,35.6245 30.29475,36.4 29.491,37.00025 C31.0365,36.533 31.67575,36.3725 32.11325,36.3725 C32.596,36.3725 32.834,36.5745 33.0425,36.75225 C33.08275,36.7845 33.12275,36.81925 33.16925,36.857 C34.3575,37.7925 35.78625,38.92775 36.2045,39.2605 C36.6885,39.31725 38.22325,39.492 39.19025,39.58125 C39.748,39.6315 40.2515,39.67425 40.7445,39.67425 C40.90375,39.67425 41.05275,39.66775 41.19375,39.6585 C41.83325,38.4385 42.408,37.05575 42.89575,35.49525 C42.961,35.25525 43.02475,35.01325 43.0815,34.77 Z M42.50575,31.80875 L43.25375,26.57175 C41.144,26.18775 38.05875,25.72325 34.2795,25.43325 C30.86775,26.61 28.01025,26.96025 27.838,26.972 L27.63875,26.98625 C28.727,27.07975 29.75225,27.37225 29.80375,27.3875 C29.91675,27.42125 30.00475,27.50775 30.03975,27.62075 L31.58625,32.71225 L39.87075,33.65325 L42.50575,31.80875 Z M44.52325,32.9115 L45.3695,26.9925 C44.993,26.911 44.51175,26.81025 43.93675,26.70025 L43.172,32.05575 C43.15775,32.15025 43.10575,32.237 43.02825,32.2915 L40.16025,34.29725 C40.09275,34.34525 40.00625,34.36725 39.9235,34.358 L31.2805,33.37575 C31.142,33.36 31.02675,33.26425 30.9865,33.1325 L29.42975,28.0075 C29.01275,27.89975 27.9425,27.65 27.00575,27.65 C26.06475,27.65 24.9955,27.89975 24.57875,28.0075 L23.02175,33.1325 C22.9945,33.2215 22.93225,33.29575 22.85125,33.338 C22.82525,33.35225 22.7955,33.3625 22.7655,33.36925 L14.1225,35.29225 C14.09525,35.29775 14.072,35.3005 14.046,35.3005 C13.97625,35.3005 13.90625,35.27975 13.848,35.238 L10.98125,33.23075 C10.901,33.175 10.84775,33.087 10.835,32.98875 L10.06225,26.72075 C9.74125,26.783 9.4515,26.8425 9.1925,26.8965 C9.009,26.99775 8.8275,27.09875 8.649,27.19975 L9.46925,33.84175 L13.63575,36.7605 L24.1475,34.422 L25.69925,29.30975 C25.73825,29.18125 25.8455,29.08675 25.97625,29.066 C26.36975,29.00275 26.71375,28.9705 27.00525,28.9705 C27.2935,28.9705 27.63925,29.00275 28.0315,29.066 C28.1635,29.08675 28.27075,29.18125 28.3085,29.30975 L29.9,34.54875 L40.4705,35.75075 L44.52325,32.9115 Z M45.69325,26.10225 L46.4375,23.27975 C45.358,23.03525 43.37,22.626 40.6625,22.24275 C39.28,23.23675 37.767,24.0315 36.28,24.6655 C40.82975,25.10825 44.1725,25.767 45.69325,26.10225 Z M46.9835,30.51425 C47.0975,29.25125 46.998,28.9795 46.86975,28.87575 C46.7415,28.76825 46.308,28.52275 45.886,28.2935 L45.19125,33.1595 C45.17825,33.254 45.125,33.33975 45.04625,33.395 L44.052,34.09025 C43.97325,34.4885 43.94475,34.6765 43.84775,35.066 C44.416,35.198 45.3475,35.3005 45.7915,35.21475 C46.1945,34.77775 46.845,32.06225 46.9835,30.51425 Z M49.98225,18.5065 C50.01875,19.235 49.99925,19.96475 49.91775,20.68975 C49.8415,21.41325 49.70425,22.13025 49.513,22.841 C49.413,23.1945 49.298,23.54375 49.162,23.8905 C49.09325,24.06375 49.01975,24.23625 48.9395,24.40825 C48.89925,24.4935 48.85675,24.57775 48.80875,24.6645 L48.73775,24.7925 C48.71175,24.839 48.691,24.874 48.65075,24.936 L48.57725,25.05025 L48.462,25.1095 C48.339,25.173 48.23825,25.22075 48.1265,25.27275 L47.802,25.419 C47.58425,25.512 47.36575,25.6 47.147,25.68525 C46.99425,25.745 46.8595,25.7995 46.7315,25.85375 L46.3705,27.2255 C46.3615,27.22325 46.25275,27.1955 46.04975,27.14675 L46.03025,27.29025 C46.42875,27.4985 47.21175,27.92075 47.4785,28.141 C48.0155,28.58475 48.05325,29.28775 47.93425,30.60125 C47.87325,31.2755 47.6495,32.58775 47.339,33.793 C46.803,35.8675 46.51825,36.11125 46.15075,36.20525 C45.96425,36.25325 45.67725,36.301 45.39875,36.301 C44.83225,36.301 44.0605,36.31675 43.5415,36.19125 C43.40825,36.66325 43.02775,37.89425 42.2745,39.43175 C42.31225,39.4135 42.3495,39.398 42.38325,39.38 C43.3125,38.892 45.0985,38.114 45.17375,38.08025 L46.5845,37.46725 L45.862,38.826 C45.84525,38.8555 44.296,41.76925 43.34725,43.67175 C42.405,45.55625 40.6385,45.9665 39.581,46.2095 C39.42175,46.24725 39.27075,46.28225 39.14775,46.31575 C38.389,46.52925 36.85275,46.8955 35.498,47.2215 C35.482,47.2255 35.4655,47.22975 35.44875,47.232 C34.615,47.74725 33.70525,48.20675 32.71,48.58475 C29.068,49.96425 25.22925,49.88675 21.749,48.60775 C21.18375,48.6805 20.4405,48.7695 19.45075,48.882 C19.02075,48.93 18.60275,48.95475 18.2045,48.95475 C14.8885,48.95475 13.131,47.27075 11.84825,45.622 C10.475,43.8565 8.79525,41.2355 8.724,41.12575 L7.75,39.6065 L9.39625,40.34675 C10.18425,40.7015 12.52725,41.786 13.1975,42.09675 C13.25175,42.0815 13.305,42.06575 13.358,42.05025 C12.24375,40.461 11.33,38.649 10.68425,36.64175 C10.1355,36.80725 9.29025,36.9355 8.63275,36.9355 C8.3925,36.9355 8.17725,36.9175 8.01175,36.8785 C7.644,36.7945 7.22475,36.44 6.654,34.42975 C6.32275,33.26275 6.0755,31.98875 6.00325,31.333 C5.86075,30.05275 5.88675,29.367 6.41875,28.924 C6.7395,28.65625 7.8215,28.088 8.0455,27.97175 L7.9975,27.57675 C4.56,29.59675 2.49975,31.38175 2.45825,31.41825 L0,33.5755 L1.75125,30.81375 C3.13725,28.625 4.73825,26.85575 6.21125,25.49275 C6.15025,25.46825 6.0935,25.44375 6.03375,25.41925 L5.709,25.273 C5.59775,25.221 5.49675,25.17325 5.374,25.10975 L5.25875,25.0505 L5.185,24.93625 C5.1435,24.874 5.1255,24.83925 5.09825,24.79275 L5.02575,24.66475 C4.9805,24.578 4.93625,24.49375 4.89625,24.4085 C4.8145,24.23625 4.741,24.064 4.67375,23.89075 C4.53775,23.544 4.4225,23.19475 4.32275,22.84125 C4.13,22.1305 3.994,21.41375 3.91775,20.69 C3.8375,19.965 3.81675,19.23525 3.853,18.50675 C3.8725,18.143 3.9075,17.7795 3.95775,17.41825 C3.98375,17.237 4.011,17.05575 4.04725,16.87575 C4.08475,16.69225 4.12125,16.52125 4.17675,16.3205 L4.2155,16.1795 L4.3165,16.10025 C4.89,15.64975 5.5085,15.3095 6.1375,15.008 C6.65525,14.76475 7.18325,14.54975 7.71525,14.354 C9.201,10.23075 11.75575,6.5745 15.113,4.02625 C18.58425,1.3925 22.666,0 26.91775,0 C31.1695,0 35.25125,1.3925 38.72225,4.0265 C42.07975,6.57475 44.6345,10.23125 46.11925,14.35325 C46.6525,14.55 47.17925,14.7635 47.69825,15.00825 C48.327,15.30975 48.94575,15.65 49.519,16.1005 L49.62,16.17975 L49.659,16.32075 C49.71575,16.5215 49.752,16.6925 49.78825,16.876 C49.82475,17.056 49.85325,17.23725 49.8775,17.4185 C49.92825,17.77925 49.9645,18.14275 49.98225,18.5065 Z M10.12475,13.9275 C9.49575,14.181 8.87075,14.4425 8.25975,14.72975 C7.6475,15.0095 7.04575,15.30975 6.471,15.64475 C5.94075,15.95025 5.43175,16.2855 4.9825,16.66375 C4.96325,16.7775 4.94525,16.90175 4.92975,17.0195 C4.91025,17.18625 4.89075,17.3535 4.87775,17.52175 C4.848,17.85825 4.83625,18.1975 4.83275,18.5365 C4.82625,19.21475 4.87275,19.893 4.95825,20.5645 C5.05125,21.2375 5.17425,21.90675 5.35675,22.5525 C5.4475,22.87625 5.5485,23.19575 5.6675,23.5035 C5.72575,23.65925 5.7905,23.8105 5.858,23.958 C5.8915,24.0315 5.9265,24.10425 5.96125,24.174 L6.00425,24.2555 C6.0545,24.2815 6.1065,24.30725 6.1555,24.3305 L6.457,24.474 C6.62525,24.55175 6.857,24.66175 7.0485,24.74725 C7.06,24.738 7.0705,24.72775 7.0795,24.71875 L6.52175,22.591 C6.6395,22.55875 7.701,22.28425 9.52975,21.93625 C9.38225,21.909 9.232,21.87675 9.086,21.8415 C8.6705,21.73825 8.25875,21.61125 7.8615,21.45075 C7.66475,21.36675 7.46925,21.276 7.28425,21.171 C7.099,21.06475 6.9165,20.94475 6.7755,20.78425 C8.78425,21.44025 12.93475,21.1425 16.625,20.76225 C20.00025,20.414 23.382,20.189 26.782,20.181 C30.182,20.18875 33.5665,20.41375 36.9395,20.76225 C40.632,21.14275 44.783,21.4405 46.791,20.78425 C46.65,20.94475 46.46775,21.06475 46.2825,21.171 C46.09775,21.276 45.902,21.3665 45.70525,21.45075 C45.3065,21.61125 44.89625,21.738 44.4795,21.8415 C44.4185,21.8555 44.3565,21.87 44.29425,21.883 C46.29925,22.2545 47.4665,22.55725 47.59075,22.591 L47.05625,24.61775 C47.16375,24.56975 47.27225,24.5235 47.37825,24.47425 L47.68,24.33075 C47.729,24.30725 47.781,24.28175 47.8315,24.25575 L47.873,24.17425 C47.909,24.1045 47.944,24.03175 47.97775,23.95825 C48.04525,23.8105 48.10975,23.65925 48.1695,23.50375 C48.28725,23.196 48.38925,22.87625 48.4785,22.55275 C48.66125,21.907 48.7855,21.23775 48.87725,20.56475 C48.96375,19.89325 49.00925,19.21475 49.00275,18.53675 C49.00025,18.19775 48.98725,17.8585 48.95875,17.522 C48.9445,17.35375 48.92625,17.18675 48.9055,17.01975 C48.89125,16.902 48.87175,16.77775 48.85225,16.664 C48.403,16.28575 47.8945,15.95075 47.36375,15.645 C46.789,15.31 46.18775,15.00975 45.574,14.73 C44.9645,14.44275 44.33825,14.18125 43.709,13.92775 C43.39425,13.80075 43.07725,13.6765 42.75875,13.55875 C42.442,13.436 42.12075,13.31975 41.8,13.203 C42.474,13.31425 43.14225,13.468 43.80325,13.63775 C44.23425,13.74925 44.66425,13.87475 45.0885,14.008 C42.061,6.0935 34.821,0.94 26.91725,0.94 C19.01175,0.94 11.77325,6.0935 8.74625,14.008 C9.17175,13.87475 9.60025,13.74925 10.03,13.63775 C10.69275,13.46825 11.3605,13.31425 12.035,13.203 C11.7125,13.3195 11.393,13.43575 11.0745,13.55875 C10.7575,13.67625 10.44075,13.8005 10.12475,13.9275 Z M28.1565,42.87725 L28.555,43.352 C28.564,43.3635 29.44925,44.417 30.5315,45.49 C31.25125,46.20325 32.12075,46.56425 33.11725,46.56425 C33.4575,46.56425 33.815,46.5205 34.176,46.4335 C34.511,46.352 34.875,46.26525 35.24775,46.176 C36.59375,45.85425 38.11825,45.48875 38.85725,45.28175 C39.0035,45.24025 39.16675,45.203 39.3385,45.16375 C40.32225,44.9365 41.67075,44.623 42.38525,43.1915 C42.9225,42.11725 43.647,40.723 44.1845,39.70125 C43.71875,39.916 43.2305,40.14875 42.88375,40.33125 C42.34925,40.612 41.64925,40.748 40.74425,40.748 C40.20625,40.748 39.67775,40.70275 39.093,40.65075 C37.92425,40.54325 35.9465,40.3105 35.92625,40.30775 L35.77475,40.291 L35.65525,40.19525 C35.6375,40.18225 33.9045,38.8015 32.50375,37.7 C32.447,37.6535 32.39525,37.6105 32.3485,37.57175 C32.201,37.446 32.201,37.446 32.113,37.446 C31.66375,37.446 30.358,37.851 27.4975,38.73775 L27.32175,38.7935 L27.1495,38.7285 C27.13,38.722 25.25325,38.026 23.00425,38.026 C22.82025,38.026 22.63675,38.03075 22.458,38.04 C22.23275,38.0515 20.9685,38.652 19.35175,41.21 L19.247,41.37425 L19.06175,41.43375 C19.035,41.443 16.25225,42.34125 13.30125,43.185 L13.10975,43.2395 L12.9285,43.15525 C12.90925,43.1475 11.7545,42.61175 10.65575,42.10675 C11.255,42.992 12.02125,44.09625 12.6955,44.96225 C13.87325,46.479 15.35775,47.88075 18.204,47.88075 C18.561,47.88075 18.94025,47.85875 19.32975,47.8145 C22.225,47.48725 22.9705,47.35525 23.37175,47.28525 C23.5075,47.26225 23.615,47.2425 23.75225,47.22575 C23.77425,47.223 26.145,46.9165 26.81025,45.42425 C27.49625,43.89075 27.63475,43.5255 27.64,43.5115 L27.882,42.86575 L27.81625,42.8045 C27.86425,42.75275 27.912,42.6985 27.96125,42.6465 C27.96125,42.64775 27.96125,42.64775 27.9625,42.64775 L27.96725,42.65175 C28.04375,42.70625 28.12,42.76425 28.19625,42.82275 L28.1565,42.87725 Z" id="Fill-40" fill="#25B7C4" mask="url(#mask-2)"></path>
            </g>
            <polyline id="Fill-42" fill="#25B7C4" points="31.306 8.1975 31.306 5.75 22.5 5.75 22.5 8.1975 23.704 8.1975 23.704 6.954 26.195 6.954 26.195 14.51025 25.17 14.51025 25.17 15.91175 28.63625 15.91175 28.63625 14.51025 27.611 14.51025 27.611 6.954 30.102 6.954 30.102 8.1975 31.306 8.1975"></polyline>
        </g>
    </g>
</svg>