<?xml version="1.0" encoding="UTF-8"?>
<svg width="50px" height="50px" viewBox="0 0 50 50" version="1.1" xmlns="http://www.w3.org/2000/svg" xmlns:xlink="http://www.w3.org/1999/xlink">
    <!-- Generator: Sketch 49.1 (51147) - http://www.bohemiancoding.com/sketch -->
    <title>twitter</title>
    <desc>Created with Sketch.</desc>
    <defs></defs>
    <g id="twitter" stroke="none" stroke-width="1" fill="none" fill-rule="evenodd">
        <g id="Twitter_Social_Icon_Circle_White" fill="#25B7C4" fill-rule="nonzero">
            <path d="M50,25 C50,38.8125 38.8125,50 25,50 C11.1875,50 0,38.8125 0,25 C0,11.1875 11.1875,0 25,0 C38.8125,0 50,11.1875 50,25 Z M20.425,38.1875 C31.5125,38.1875 37.575,29 37.575,21.0375 C37.575,20.775 37.575,20.5125 37.5625,20.2625 C38.7375,19.4125 39.7625,18.35 40.575,17.1375 C39.5,17.6125 38.3375,17.9375 37.1125,18.0875 C38.3625,17.3375 39.3125,16.1625 39.7625,14.75 C38.6,15.4375 37.3125,15.9375 35.9375,16.2125 C34.8375,15.0375 33.275,14.3125 31.5375,14.3125 C28.2125,14.3125 25.5125,17.0125 25.5125,20.3375 C25.5125,20.8125 25.5625,21.275 25.675,21.7125 C20.6625,21.4625 16.225,19.0625 13.25,15.4125 C12.7375,16.3 12.4375,17.3375 12.4375,18.4375 C12.4375,20.525 13.5,22.375 15.125,23.45 C14.1375,23.425 13.2125,23.15 12.4,22.7 C12.4,22.725 12.4,22.75 12.4,22.775 C12.4,25.7 14.475,28.125 17.2375,28.6875 C16.7375,28.825 16.2,28.9 15.65,28.9 C15.2625,28.9 14.8875,28.8625 14.5125,28.7875 C15.275,31.1875 17.5,32.925 20.1375,32.975 C18.075,34.5875 15.475,35.55 12.65,35.55 C12.1625,35.55 11.6875,35.525 11.2125,35.4625 C13.85,37.1875 17.025,38.1875 20.425,38.1875 Z" id="Shape"></path>
        </g>
    </g>
</svg>