<?xml version="1.0" encoding="UTF-8"?>
<svg width="50px" height="50px" viewBox="0 0 50 50" version="1.1" xmlns="http://www.w3.org/2000/svg" xmlns:xlink="http://www.w3.org/1999/xlink">
    <!-- Generator: Sketch 49.1 (51147) - http://www.bohemiancoding.com/sketch -->
    <title>vsalert</title>
    <desc>Created with Sketch.</desc>
    <defs></defs>
    <g id="vsalert" stroke="none" stroke-width="1" fill="none" fill-rule="evenodd">
        <g id="bell" transform="translate(6.000000, 0.000000)" fill="#25B7C4" fill-rule="nonzero">
            <path d="M13.5017391,43.968913 C13.5016304,43.9819565 13.5007609,43.9948913 13.5007609,44.0079348 C13.5007609,47.2772826 16.151087,49.9276087 19.4204348,49.9276087 C22.6897826,49.9276087 25.3401087,47.2772826 25.3401087,44.0079348 C25.3401087,43.9948913 25.3392391,43.9819565 25.3391304,43.968913 L13.5017391,43.968913 Z" id="Shape"></path>
            <path d="M38.3205435,36.5693478 L32.9928261,28.7430435 C32.9928261,26.3472826 32.9928261,20.4932609 32.9928261,18.978913 C32.9928261,12.3940217 28.3032609,6.9051087 22.0818478,5.66815217 L22.0818478,2.66141304 C22.0817391,1.19163043 20.8902174,0 19.4203261,0 C17.9504348,0 16.758913,1.19163043 16.758913,2.66141304 L16.758913,5.66826087 C10.5375,6.90532609 5.84793478,12.3942391 5.84793478,18.9790217 C5.84793478,21.5568478 5.84793478,27.2490217 5.84793478,28.7431522 L0.520217391,36.5694565 C-0.0409782609,37.3938043 -0.100326087,38.4608696 0.365978261,39.3423913 C0.832282609,40.223913 1.74771739,40.7752174 2.745,40.7752174 L36.0956522,40.7752174 C37.0929348,40.7752174 38.0083696,40.2238043 38.4746739,39.3423913 C38.941087,38.4607609 38.8816304,37.3936957 38.3205435,36.5693478 Z" id="Shape"></path>
        </g>
    </g>
</svg>