<?xml version="1.0" encoding="UTF-8"?>
<svg width="50px" height="50px" viewBox="0 0 50 50" version="1.1" xmlns="http://www.w3.org/2000/svg" xmlns:xlink="http://www.w3.org/1999/xlink">
    <!-- Generator: Sketch 49.1 (51147) - http://www.bohemiancoding.com/sketch -->
    <title>website</title>
    <desc>Created with Sketch.</desc>
    <defs></defs>
    <g id="website" stroke="none" stroke-width="1" fill="none" fill-rule="evenodd">
        <g id="writting-laptop-" transform="translate(0.000000, 5.000000)" fill="#25B7C4" fill-rule="nonzero">
            <path d="M44.5246521,0.00178926441 L5.47206759,0.00178926441 L5.47206759,27.0917495 L44.5246521,27.0917495 L44.5246521,0.00178926441 Z M40.4526839,23.6738569 L9.54602386,23.6738569 L9.54602386,3.41540755 L40.4526839,3.41540755 L40.4526839,23.6738569 Z" id="Shape"></path>
            <polygon id="Shape" points="44.5074553 28.9980119 5.45705765 28.9980119 0 37.15666 0 39.626839 49.9666004 39.626839 49.9666004 37.15666"></polygon>
            <rect id="Rectangle-path" x="12.87167" y="12.9142147" width="6.47982107" height="1.53310139"></rect>
            <rect id="Rectangle-path" x="12.87167" y="17.6035785" width="6.47982107" height="1.53310139"></rect>
            <rect id="Rectangle-path" x="12.87167" y="8.22266402" width="6.47982107" height="1.53310139"></rect>
            <rect id="Rectangle-path" x="22.840159" y="12.9142147" width="13.8558648" height="1.53310139"></rect>
            <rect id="Rectangle-path" x="22.840159" y="8.22266402" width="13.8558648" height="1.53310139"></rect>
            <rect id="Rectangle-path" x="22.840159" y="17.6035785" width="13.8558648" height="1.53310139"></rect>
        </g>
    </g>
</svg>