<?xml version="1.0" encoding="UTF-8"?>
<svg width="16px" height="16px" viewBox="0 0 16 16" version="1.1" xmlns="http://www.w3.org/2000/svg" xmlns:xlink="http://www.w3.org/1999/xlink">
    <g id="website-icon.svg" stroke="none" stroke-width="1" fill="none" fill-rule="evenodd">
        <g id="Group" transform="translate(0.000000, 4.000000)" fill="#000000">
            <path d="M0,4.39347409 L4.4723727,2.08445298 L4.4723727,2.81573896 C4.4723727,2.88099841 4.45696416,2.93761972 4.42614662,2.98560461 C4.39532909,3.03358949 4.34139921,3.07677524 4.26435536,3.11516315 L1.66991694,4.42802303 C1.59287309,4.47024973 1.51101524,4.50575801 1.42434092,4.53454894 C1.33766659,4.56333988 1.2461784,4.58925132 1.1498736,4.61228407 C1.2461784,4.63147802 1.33766659,4.65642979 1.42434092,4.68714012 C1.51101524,4.71785044 1.59287309,4.75239904 1.66991694,4.79078695 L4.26435536,6.09788868 C4.34139921,6.13627658 4.39532909,6.18042202 4.42614662,6.2303263 C4.45696416,6.28023058 4.4723727,6.33589221 4.4723727,6.39731286 L4.4723727,7.13435701 L0,4.81957774 L0,4.39347409 Z M6.77789816,8.60268714 C6.72396747,8.73704482 6.64403568,8.83685188 6.5381004,8.90211132 C6.43216511,8.96737077 6.32334232,9 6.21162875,9 L5.7782593,9 L9.25099314,0.380038388 C9.30107164,0.257197083 9.37233612,0.163148119 9.46478873,0.0978886756 C9.55724134,0.0326292322 9.66702717,0 9.79414951,0 L10.227519,0 L6.77789816,8.60268714 Z M11.5334056,7.13435701 L11.5334056,6.39731286 C11.5334056,6.33589221 11.5488141,6.28023058 11.5796316,6.2303263 C11.6104492,6.18042202 11.6643791,6.13627658 11.7414229,6.09788868 L14.3358613,4.79078695 C14.4129052,4.75239904 14.492837,4.71785044 14.5756591,4.68714012 C14.6584812,4.65642979 14.7480433,4.63147802 14.8443481,4.61228407 C14.7480433,4.58925132 14.6584812,4.56333988 14.5756591,4.53454894 C14.492837,4.50575801 14.4129052,4.47024973 14.3358613,4.42802303 L11.7414229,3.11516315 C11.6643791,3.07677524 11.6104492,3.03358949 11.5796316,2.98560461 C11.5488141,2.93761972 11.5334056,2.88099841 11.5334056,2.81573896 L11.5334056,2.08445298 L16,4.39347409 L16,4.81957774 L11.5334056,7.13435701 Z" id="&lt;/&gt;"></path>
        </g>
    </g>
</svg>